<?xml version="1.0" encoding="utf-8"?>
<!-- Generator: Adobe Illustrator 21.1.0, SVG Export Plug-In . SVG Version: 6.00 Build 0)  -->
<svg version="1.1" id="Layer_1" xmlns="http://www.w3.org/2000/svg" xmlns:xlink="http://www.w3.org/1999/xlink" x="0px" y="0px"
	 width="523.9px" height="243.4px" viewBox="0 0 523.9 243.4" style="enable-background:new 0 0 523.9 243.4;" xml:space="preserve"
	>
<style type="text/css">
	.st0{fill:#F5F5F5;}
	.st1{fill:#FF2020;}
	.st2{fill:none;stroke:#FF2020;stroke-width:2;stroke-miterlimit:10;}
	.st3{fill:#FF3030;}
	.st4{fill:none;stroke:#FF2020;stroke-miterlimit:10;}
</style>
<g>
	<path class="st0" d="M275.6,102.3c0-0.5,0-0.9,0-1.4c0-6.4,0-12.9,0-19.3c0-3,1.4-4.4,4.4-4.4c19.5,0,39.1,0,58.6,0
		c3.1,0,4.5,1.4,4.5,4.5c0,4.3,0,8.6,0,13c0,0.4,0,0.8,0,1.1c0.2,0.1,0.2,0.1,0.3,0.1c3,0.2,3.5,0.7,3.5,3.7c0,3.9,0,7.9,0,11.8
		c0,2.4-0.8,3.2-3.2,3.3c-0.1,0-0.3,0-0.6,0.1c0,0.5,0,0.9,0,1.4c0,8.9,0,17.7,0,26.6c0,3.1-1.4,4.5-4.5,4.5c-3.9,0-7.7,0-11.7,0
		c0,0.5,0,0.9,0,1.3c-0.1,2.2-1.6,3.7-3.8,3.7c-2.4,0-4.7,0-7.1,0c-2.6,0-4-1.4-4.1-4c0-0.3,0-0.6-0.1-0.9c-0.8,0-1.6,0-2.3,0
		c-0.5,3.5-0.7,3.7-4.3,3.7c-3.4,0-6.7,0-10.1,0c-2.4,0-3.2-0.7-3.3-3.2c0-0.1,0-0.3-0.1-0.5c-0.4,0-0.8,0-1.2,0
		c-3.6,0-7.2,0-10.8,0c-2.7,0-4.2-1.5-4.2-4.2c0-6.5,0-12.9,0-19.4c0-0.4,0-0.9,0-1.4c-0.5,0-0.9,0-1.3,0c-1.4-0.1-2.4-1-2.4-2.4
		c0-5.1,0-10.1,0-15.2c0-1.4,1-2.3,2.4-2.4C274.7,102.3,275.1,102.3,275.6,102.3z M288.2,121.1c0.8,0,1.5,0,2.2,0
		c0.8,0,1.4,0.3,1.5,1.2c0,0.9-0.6,1.3-1.5,1.3c-0.7,0-1.5,0-2.2,0c0,0.9,0,1.7,0,2.5c0.7,0,1.3,0,2,0c0.9,0,1.6,0.2,1.7,1.2
		c0.1,0.8-0.5,1.3-1.7,1.3c-2.5,0-4.9,0-7.4,0c-1.9,0-2.1-0.2-2.1-2.1c0-1.4,0-2.8,0-4.1c-0.9,0-1.7,0-2.5,0c0,0.2-0.1,0.4-0.1,0.6
		c0,6.8,0,13.6,0,20.4c0,1.1,0.5,1.5,1.6,1.5c3.8,0,7.6,0,11.4,0c0.2,0,0.5-0.1,0.8-0.1c0-2.8,0-5.5,0-8.3c0-1.9,1-2.8,2.8-2.9
		c4,0,7.9,0,11.9,0c1.8,0,2.8,1,2.8,2.8c0,2.4,0,4.9,0,7.3c0,0.4,0,0.8,0,1.1c0.9,0,1.7,0,2.5,0c0-0.4,0-0.8,0-1.2
		c0-5.3,0-10.6,0-15.9c0-2,0.9-2.9,2.9-2.9c3,0,6,0,9,0c2.2,0,3.1,0.9,3.1,3.1c0,5.2,0,10.4,0,15.6c0,0.4,0,0.8,0.1,1.2
		c0.4,0,0.7,0,1,0c3.6,0,7.1,0,10.7,0c1.6,0,2-0.3,2-1.9c0-9,0-18,0-27c0-0.3,0-0.7,0-1.1c-3.7,0-7.2,0-10.8,0c-2,0-3-0.9-3-2.9
		c0-4.3,0-8.6,0-12.9c0-2.1,0.9-3,3-3c3.2,0,6.4,0,9.5,0c0.4,0,0.7,0,1.2-0.1c0-0.5,0-0.8,0-1.2c0-4.3,0-8.6,0-13c0-1.7-0.3-2-2-2
		c-19.5,0-39.1,0-58.6,0c-1.6,0-1.9,0.3-1.9,1.9c0,6.5,0,12.9,0,19.4c0,0.4,0,0.7,0.1,1.1c0.9,0,1.6,0,2.5,0c0-1.6,0-3.1,0-4.6
		c0-1.1,0.4-1.5,1.4-1.6c2.8,0,5.6,0,8.4,0c0.8,0,1.4,0.4,1.4,1.3c0,0.9-0.6,1.2-1.4,1.2c-0.7,0-1.5,0-2.2,0c0,0.9,0,1.7,0,2.5
		c0.8,0,1.4,0,2.1,0c0.9,0,1.5,0.3,1.5,1.3s-0.7,1.2-1.5,1.2c-0.7,0-1.4,0-2.1,0c0,0.9,0,1.7,0,2.5c0.8,0,1.4,0,2.1,0
		c0.9,0,1.5,0.3,1.5,1.3c0,0.9-0.6,1.2-1.4,1.2c-0.7,0-1.5,0-2.2,0c0,0.9,0,1.6,0,2.5c0.8,0,1.5,0,2.3,0c0.8,0,1.4,0.4,1.4,1.3
		c0,0.8-0.6,1.2-1.4,1.2c-0.7,0-1.5,0-2.3,0c0,0.9,0,1.6,0,2.5c0.8,0,1.5,0,2.2,0c0.8,0,1.4,0.3,1.5,1.2c0,1-0.6,1.3-1.5,1.3
		c-0.7,0-1.5,0-2.2,0C288.2,119.5,288.2,120.2,288.2,121.1z M344.3,112.2c0-4.6,0-9.1,0-13.6c-5,0-9.9,0-14.9,0c0,4.6,0,9.1,0,13.6
		C334.4,112.2,339.3,112.2,344.3,112.2z M306.8,148.5c0-4.2,0-8.3,0-12.4c-4.2,0-8.2,0-12.4,0c0,4.2,0,8.2,0,12.4
		C298.6,148.5,302.7,148.5,306.8,148.5z M324.3,139.8c0-4.2,0-8.3,0-12.4c-3.3,0-6.6,0-9.8,0c0,4.2,0,8.3,0,12.4c1.3,0,2.4,0,3.6,0
		c0-0.3,0.1-0.6,0.1-0.9c0-1.3,0-2.6,0-4c0-0.8,0.4-1.3,1.3-1.3c0.8,0,1.2,0.5,1.2,1.2c0,0.5,0,1.1,0,1.6c0,1.1,0,2.2,0,3.3
		C322,139.8,323.1,139.8,324.3,139.8z M274.5,119.7c2.1,0,4.1,0,6.1,0c0-5,0-9.9,0-14.9c-2.1,0-4.1,0-6.1,0
		C274.5,109.9,274.5,114.8,274.5,119.7z M314.4,142.4c0,2.2-0.1,4.2,0.1,6.3c0,0.4,0.7,1.1,1.2,1.1c2.5,0.1,5.1,0.1,7.6,0
		c0.4,0,1.1-0.7,1.1-1c0.1-2.1,0.1-4.2,0.1-6.3C321.1,142.4,317.8,142.4,314.4,142.4z M283.2,98.6c0,9.2,0,18.3,0,27.4
		c0.8,0,1.6,0,2.3,0c0-9.2,0-18.3,0-27.4C284.8,98.6,284,98.6,283.2,98.6z"/>
	<path class="st1" d="M309.4,122.3c-2.4,0-4.8,0-7.2,0c-1.8,0-2.8-1-2.8-2.8c0-2.7,0.1-5.4,0.1-8.1c0-2-0.1-4.1-0.1-6.1
		s0.9-2.9,3-2.9c4.7,0,9.4,0,14.1,0c2,0,2.9,0.9,2.9,2.9c0,2.7-0.1,5.5-0.1,8.2c0,2,0.1,4.1,0.1,6.1c0.1,1.7-1,2.8-2.6,2.8
		C314.3,122.3,311.8,122.3,309.4,122.3z M316.9,119.8c0-5,0-10,0-14.9c-5.1,0-10,0-15,0c0,5,0,9.9,0,14.9
		C307,119.8,311.9,119.8,316.9,119.8z"/>
	<path class="st0" d="M284.4,142.3c-2.1,0-3.8-1.6-3.8-3.7s1.6-3.8,3.7-3.8c2,0,3.8,1.7,3.8,3.7
		C288.2,140.6,286.5,142.3,284.4,142.3z M285.8,138.9c0-0.2,0-0.3,0-0.5c-0.4-0.3-0.9-0.9-1.4-1c-0.7-0.2-1.2,0.4-1.3,1.1
		c-0.1,0.8,0.4,1.4,1.2,1.3C284.9,139.7,285.3,139.2,285.8,138.9z"/>
	<path class="st0" d="M284.3,89.8c-2.1,0-3.7-1.7-3.7-3.8s1.7-3.7,3.8-3.7s3.7,1.8,3.7,3.8C288.1,88.2,286.4,89.8,284.3,89.8z
		 M285.8,86.3c0-0.2,0-0.3,0-0.5c-0.5-0.3-0.9-0.8-1.4-0.9c-0.7-0.1-1.2,0.4-1.2,1.2c0,0.7,0.6,1.4,1.3,1.2
		C285,87.1,285.4,86.6,285.8,86.3z"/>
	<path class="st0" d="M338.2,138.6c0,2.1-1.7,3.7-3.8,3.7s-3.7-1.7-3.7-3.8c0-2.1,1.8-3.7,3.8-3.7
		C336.5,134.9,338.2,136.6,338.2,138.6z M335.8,138.8c0-0.2,0-0.3,0-0.5c-0.5-0.3-0.9-0.8-1.4-0.9c-0.7-0.1-1.2,0.4-1.2,1.2
		c0,0.8,0.5,1.4,1.2,1.2C334.9,139.7,335.4,139.1,335.8,138.8z"/>
	<path class="st0" d="M338.2,86.1c0,2.1-1.6,3.7-3.7,3.7c-2.1,0-3.8-1.7-3.8-3.7c0-2.1,1.7-3.8,3.7-3.8
		C336.5,82.3,338.1,84,338.2,86.1z M335.8,86.3c0-0.2,0-0.3,0-0.5c-0.5-0.3-0.9-0.8-1.4-0.9c-0.7-0.1-1.2,0.4-1.2,1.2
		s0.5,1.3,1.3,1.2C335,87.2,335.4,86.6,335.8,86.3z"/>
	<path class="st0" d="M302.2,82.2c0.3,0.5,0.8,0.9,0.9,1.4c0.1,0.7-0.4,1.2-1.2,1.2c-0.7,0-1.4-0.6-1.2-1.3c0.2-0.5,0.6-0.9,1-1.4
		C301.8,82.1,302,82.1,302.2,82.2z"/>
	<path class="st0" d="M316.7,85c-0.3-0.5-0.9-0.9-1-1.4c-0.1-0.7,0.4-1.2,1.1-1.3c0.7-0.1,1.5,0.6,1.3,1.2c-0.1,0.5-0.6,0.9-0.9,1.4
		C317,85,316.8,85,316.7,85z"/>
	<path class="st0" d="M298.3,83.9c-0.5,0.3-0.9,0.8-1.4,0.9c-0.8,0.1-1.2-0.5-1.2-1.3s0.6-1.3,1.3-1.1c0.5,0.1,0.9,0.7,1.4,1
		C298.3,83.5,298.3,83.7,298.3,83.9z"/>
	<path class="st0" d="M308.3,83.9c-0.5,0.3-0.9,0.8-1.4,0.9c-0.7,0.1-1.2-0.4-1.2-1.2c0-0.7,0.6-1.4,1.3-1.2c0.5,0.2,0.9,0.7,1.4,1
		C308.3,83.5,308.3,83.7,308.3,83.9z"/>
	<path class="st0" d="M293.3,83.8c-0.5,0.3-0.9,0.9-1.4,1c-0.7,0.2-1.2-0.3-1.3-1.1c-0.1-0.7,0.5-1.5,1.2-1.3c0.5,0.1,1,0.6,1.4,0.9
		C293.3,83.4,293.3,83.6,293.3,83.8z"/>
	<path class="st0" d="M311.7,85c-0.3-0.5-0.9-0.9-0.9-1.4c-0.1-0.8,0.4-1.3,1.2-1.2c0.8,0,1.3,0.5,1.1,1.2c-0.1,0.5-0.6,0.9-0.9,1.4
		C312,85,311.8,85,311.7,85z"/>
	<path class="st0" d="M322.2,82.1c0.3,0.5,0.8,0.9,0.9,1.4c0.1,0.8-0.5,1.3-1.3,1.2c-0.8,0-1.2-0.6-1.1-1.3c0.1-0.5,0.6-0.9,1-1.4
		C321.8,82.1,322,82.1,322.2,82.1z"/>
	<path class="st0" d="M328.3,83.8c-0.5,0.3-0.9,0.9-1.4,1c-0.7,0.2-1.2-0.4-1.3-1.1c-0.1-0.8,0.4-1.4,1.2-1.3
		c0.5,0.1,0.9,0.6,1.4,0.9C328.3,83.4,328.3,83.6,328.3,83.8z"/>
	<path class="st0" d="M293.3,88.8c-0.5,0.3-0.9,0.8-1.4,0.9c-0.8,0.1-1.3-0.4-1.2-1.2c0-0.8,0.5-1.3,1.2-1.1
		c0.5,0.1,0.9,0.6,1.4,0.9C293.3,88.5,293.3,88.6,293.3,88.8z"/>
	<path class="st0" d="M297.1,87.2c0.3,0.5,0.9,0.9,0.9,1.4c0.1,0.8-0.4,1.3-1.2,1.2c-0.8,0-1.3-0.5-1.2-1.2c0.1-0.5,0.6-0.9,0.9-1.4
		C296.8,87.2,297,87.2,297.1,87.2z"/>
	<path class="st0" d="M307.2,87.2c0.3,0.5,0.8,0.9,0.9,1.4c0.1,0.7-0.4,1.2-1.2,1.2c-0.8,0-1.4-0.5-1.2-1.3c0.1-0.5,0.6-0.9,1-1.4
		C306.9,87.1,307,87.2,307.2,87.2z"/>
	<path class="st0" d="M311.6,90c-0.3-0.5-0.8-0.9-0.9-1.4c-0.1-0.7,0.4-1.2,1.2-1.2c0.8,0,1.4,0.5,1.2,1.3c-0.1,0.5-0.6,0.9-1,1.4
		C312,90,311.8,90,311.6,90z"/>
	<path class="st0" d="M323.3,88.8c-0.5,0.3-0.9,0.8-1.4,0.9c-0.7,0.1-1.2-0.4-1.2-1.1c0-0.8,0.5-1.4,1.2-1.2
		c0.5,0.1,0.9,0.6,1.4,0.9C323.3,88.5,323.3,88.6,323.3,88.8z"/>
	<path class="st0" d="M327.2,87.2c0.3,0.5,0.8,0.9,0.9,1.4c0.1,0.7-0.4,1.2-1.2,1.2c-0.8,0-1.4-0.5-1.2-1.2c0.1-0.5,0.6-0.9,0.9-1.4
		C326.8,87.1,327,87.2,327.2,87.2z"/>
	<path class="st0" d="M301.7,90c-0.4-0.4-0.9-0.9-1-1.4c-0.2-0.7,0.3-1.2,1.1-1.3s1.4,0.4,1.3,1.2c-0.1,0.5-0.6,1-0.9,1.4
		C302,90,301.9,90,301.7,90z"/>
	<path class="st0" d="M316.7,90c-0.4-0.4-0.9-0.9-1-1.4c-0.2-0.7,0.3-1.2,1.1-1.3s1.4,0.4,1.3,1.2c-0.1,0.5-0.6,1-0.9,1.4
		C317,90,316.9,90,316.7,90z"/>
	<path class="st0" d="M335.7,107.3c0.7,0,1.5,0,2.2,0c0.8,0,1.4,0.4,1.4,1.3c0,0.9-0.6,1.2-1.4,1.3c-1.6,0-3.1,0-4.7,0
		c-0.8,0-1.4-0.4-1.3-1.3c0-0.8,0.6-1.2,1.4-1.2C334.1,107.3,334.9,107.3,335.7,107.3z"/>
	<path class="st0" d="M335.7,101.1c0.8,0,1.6,0,2.3,0c0.8,0,1.3,0.4,1.3,1.2s-0.5,1.3-1.3,1.3c-1.6,0-3.3,0-4.9,0
		c-0.8,0-1.3-0.5-1.3-1.3s0.5-1.2,1.3-1.2C334.1,101.1,334.9,101.1,335.7,101.1z"/>
	<path class="st0" d="M301.9,142.3c0-0.5-0.1-1,0-1.4c0.2-0.4,0.7-1,1.1-1c0.5,0,1.2,0.5,1.3,0.9c0.2,1,0.2,2,0,3
		c-0.1,0.4-0.8,1-1.2,0.9s-0.9-0.6-1.2-1.1C301.8,143.3,301.9,142.8,301.9,142.3L301.9,142.3z"/>
	<path class="st0" d="M299.4,142.3c0,0.4,0,0.9,0,1.3c0,0.8-0.5,1.3-1.3,1.3c-0.7,0-1.2-0.5-1.2-1.2c0-0.8,0-1.6,0-2.4
		s0.5-1.3,1.3-1.3c0.8,0,1.1,0.5,1.2,1.2C299.4,141.5,299.4,141.9,299.4,142.3z"/>
</g>
<g>
	<path class="st0" d="M362,102.3c0-0.5,0-0.9,0-1.4c0-6.4,0-12.9,0-19.3c0-3,1.4-4.4,4.4-4.4c19.5,0,39.1,0,58.6,0
		c3.1,0,4.5,1.4,4.5,4.5c0,4.3,0,8.6,0,13c0,0.4,0,0.8,0,1.1c0.2,0.1,0.2,0.1,0.3,0.1c3,0.2,3.5,0.7,3.5,3.7c0,3.9,0,7.9,0,11.8
		c0,2.4-0.8,3.2-3.2,3.3c-0.1,0-0.3,0-0.6,0.1c0,0.5,0,0.9,0,1.4c0,8.9,0,17.7,0,26.6c0,3.1-1.4,4.5-4.5,4.5c-3.9,0-7.7,0-11.7,0
		c0,0.5,0,0.9,0,1.3c-0.1,2.2-1.6,3.7-3.8,3.7c-2.4,0-4.7,0-7.1,0c-2.6,0-4-1.4-4.1-4c0-0.3,0-0.6-0.1-0.9c-0.8,0-1.6,0-2.3,0
		c-0.5,3.5-0.7,3.7-4.3,3.7c-3.4,0-6.7,0-10.1,0c-2.4,0-3.2-0.7-3.3-3.2c0-0.1,0-0.3-0.1-0.5c-0.4,0-0.8,0-1.2,0
		c-3.6,0-7.2,0-10.8,0c-2.7,0-4.2-1.5-4.2-4.2c0-6.5,0-12.9,0-19.4c0-0.4,0-0.9,0-1.4c-0.5,0-0.9,0-1.3,0c-1.4-0.1-2.4-1-2.4-2.4
		c0-5.1,0-10.1,0-15.2c0-1.4,1-2.3,2.4-2.4C361.1,102.3,361.5,102.3,362,102.3z M374.6,121.1c0.8,0,1.5,0,2.2,0
		c0.8,0,1.4,0.3,1.5,1.2c0,0.9-0.6,1.3-1.5,1.3c-0.7,0-1.5,0-2.2,0c0,0.9,0,1.7,0,2.5c0.7,0,1.3,0,2,0c0.9,0,1.6,0.2,1.7,1.2
		c0.1,0.8-0.5,1.3-1.7,1.3c-2.5,0-4.9,0-7.4,0c-1.9,0-2.1-0.2-2.1-2.1c0-1.4,0-2.8,0-4.1c-0.9,0-1.7,0-2.5,0c0,0.2-0.1,0.4-0.1,0.6
		c0,6.8,0,13.6,0,20.4c0,1.1,0.5,1.5,1.6,1.5c3.8,0,7.6,0,11.4,0c0.2,0,0.5-0.1,0.8-0.1c0-2.8,0-5.5,0-8.3c0-1.9,1-2.8,2.8-2.9
		c4,0,7.9,0,11.9,0c1.8,0,2.8,1,2.8,2.8c0,2.4,0,4.9,0,7.3c0,0.4,0,0.8,0,1.1c0.9,0,1.7,0,2.5,0c0-0.4,0-0.8,0-1.2
		c0-5.3,0-10.6,0-15.9c0-2,0.9-2.9,2.9-2.9c3,0,6,0,9,0c2.2,0,3.1,0.9,3.1,3.1c0,5.2,0,10.4,0,15.6c0,0.4,0,0.8,0.1,1.2
		c0.4,0,0.7,0,1,0c3.6,0,7.1,0,10.7,0c1.6,0,2-0.3,2-1.9c0-9,0-18,0-27c0-0.3,0-0.7,0-1.1c-3.7,0-7.2,0-10.8,0c-2,0-3-0.9-3-2.9
		c0-4.3,0-8.6,0-12.9c0-2.1,0.9-3,3-3c3.2,0,6.4,0,9.5,0c0.4,0,0.7,0,1.2-0.1c0-0.5,0-0.8,0-1.2c0-4.3,0-8.6,0-13c0-1.7-0.3-2-2-2
		c-19.5,0-39.1,0-58.6,0c-1.6,0-1.9,0.3-1.9,1.9c0,6.5,0,12.9,0,19.4c0,0.4,0,0.7,0.1,1.1c0.9,0,1.6,0,2.5,0c0-1.6,0-3.1,0-4.6
		c0-1.1,0.4-1.5,1.4-1.6c2.8,0,5.6,0,8.4,0c0.8,0,1.4,0.4,1.4,1.3c0,0.9-0.6,1.2-1.4,1.2c-0.7,0-1.5,0-2.2,0c0,0.9,0,1.7,0,2.5
		c0.8,0,1.4,0,2.1,0c0.9,0,1.5,0.3,1.5,1.3s-0.7,1.2-1.5,1.2c-0.7,0-1.4,0-2.1,0c0,0.9,0,1.7,0,2.5c0.8,0,1.4,0,2.1,0
		c0.9,0,1.5,0.3,1.5,1.3c0,0.9-0.6,1.2-1.4,1.2c-0.7,0-1.5,0-2.2,0c0,0.9,0,1.6,0,2.5c0.8,0,1.5,0,2.3,0c0.8,0,1.4,0.4,1.4,1.3
		c0,0.8-0.6,1.2-1.4,1.2c-0.7,0-1.5,0-2.3,0c0,0.9,0,1.6,0,2.5c0.8,0,1.5,0,2.2,0c0.8,0,1.4,0.3,1.5,1.2c0,1-0.6,1.3-1.5,1.3
		c-0.7,0-1.5,0-2.2,0C374.6,119.5,374.6,120.2,374.6,121.1z M430.7,112.2c0-4.6,0-9.1,0-13.6c-5,0-9.9,0-14.9,0c0,4.6,0,9.1,0,13.6
		C420.8,112.2,425.7,112.2,430.7,112.2z M393.2,148.5c0-4.2,0-8.3,0-12.4c-4.2,0-8.2,0-12.4,0c0,4.2,0,8.2,0,12.4
		C385,148.5,389.1,148.5,393.2,148.5z M410.7,139.8c0-4.2,0-8.3,0-12.4c-3.3,0-6.6,0-9.8,0c0,4.2,0,8.3,0,12.4c1.3,0,2.4,0,3.6,0
		c0-0.3,0.1-0.6,0.1-0.9c0-1.3,0-2.6,0-4c0-0.8,0.4-1.3,1.3-1.3c0.8,0,1.2,0.5,1.2,1.2c0,0.5,0,1.1,0,1.6c0,1.1,0,2.2,0,3.3
		C408.4,139.8,409.5,139.8,410.7,139.8z M360.9,119.7c2.1,0,4.1,0,6.1,0c0-5,0-9.9,0-14.9c-2.1,0-4.1,0-6.1,0
		C360.9,109.9,360.9,114.8,360.9,119.7z M400.8,142.4c0,2.2-0.1,4.2,0.1,6.3c0,0.4,0.7,1.1,1.2,1.1c2.5,0.1,5.1,0.1,7.6,0
		c0.4,0,1.1-0.7,1.1-1c0.1-2.1,0.1-4.2,0.1-6.3C407.5,142.4,404.2,142.4,400.8,142.4z M369.6,98.6c0,9.2,0,18.3,0,27.4
		c0.8,0,1.6,0,2.3,0c0-9.2,0-18.3,0-27.4C371.2,98.6,370.4,98.6,369.6,98.6z"/>
	<path class="st0" d="M395.8,122.3c-2.4,0-4.8,0-7.2,0c-1.8,0-2.8-1-2.8-2.8c0-2.7,0.1-5.4,0.1-8.1c0-2-0.1-4.1-0.1-6.1
		s0.9-2.9,3-2.9c4.7,0,9.4,0,14.1,0c2,0,2.9,0.9,2.9,2.9c0,2.7-0.1,5.5-0.1,8.2c0,2,0.1,4.1,0.1,6.1c0.1,1.7-1,2.8-2.6,2.8
		C400.7,122.3,398.2,122.3,395.8,122.3z M403.3,119.8c0-5,0-10,0-14.9c-5.1,0-10,0-15,0c0,5,0,9.9,0,14.9
		C393.4,119.8,398.3,119.8,403.3,119.8z"/>
	<path class="st1" d="M370.8,142.3c-2.1,0-3.8-1.6-3.8-3.7s1.6-3.8,3.7-3.8c2,0,3.8,1.7,3.8,3.7
		C374.6,140.6,372.9,142.3,370.8,142.3z M372.2,138.9c0-0.2,0-0.3,0-0.5c-0.4-0.3-0.9-0.9-1.4-1c-0.7-0.2-1.2,0.4-1.3,1.1
		c-0.1,0.8,0.4,1.4,1.2,1.3C371.3,139.7,371.7,139.2,372.2,138.9z"/>
	<path class="st0" d="M370.7,89.8c-2.1,0-3.7-1.7-3.7-3.8s1.7-3.7,3.8-3.7s3.7,1.8,3.7,3.8C374.5,88.2,372.8,89.8,370.7,89.8z
		 M372.2,86.3c0-0.2,0-0.3,0-0.5c-0.5-0.3-0.9-0.8-1.4-0.9c-0.7-0.1-1.2,0.4-1.2,1.2c0,0.7,0.6,1.4,1.3,1.2
		C371.4,87.1,371.8,86.6,372.2,86.3z"/>
	<path class="st0" d="M424.6,138.6c0,2.1-1.7,3.7-3.8,3.7s-3.7-1.7-3.7-3.8c0-2.1,1.8-3.7,3.8-3.7
		C422.9,134.9,424.6,136.6,424.6,138.6z M422.2,138.8c0-0.2,0-0.3,0-0.5c-0.5-0.3-0.9-0.8-1.4-0.9c-0.7-0.1-1.2,0.4-1.2,1.2
		c0,0.8,0.5,1.4,1.2,1.2C421.3,139.7,421.8,139.1,422.2,138.8z"/>
	<path class="st0" d="M424.6,86.1c0,2.1-1.6,3.7-3.7,3.7c-2.1,0-3.8-1.7-3.8-3.7c0-2.1,1.7-3.8,3.7-3.8
		C422.9,82.3,424.5,84,424.6,86.1z M422.2,86.3c0-0.2,0-0.3,0-0.5c-0.5-0.3-0.9-0.8-1.4-0.9c-0.7-0.1-1.2,0.4-1.2,1.2
		s0.5,1.3,1.3,1.2C421.4,87.2,421.8,86.6,422.2,86.3z"/>
	<path class="st0" d="M388.6,82.2c0.3,0.5,0.8,0.9,0.9,1.4c0.1,0.7-0.4,1.2-1.2,1.2c-0.7,0-1.4-0.6-1.2-1.3c0.2-0.5,0.6-0.9,1-1.4
		C388.2,82.1,388.4,82.1,388.6,82.2z"/>
	<path class="st0" d="M403.1,85c-0.3-0.5-0.9-0.9-1-1.4c-0.1-0.7,0.4-1.2,1.1-1.3s1.5,0.6,1.3,1.2c-0.1,0.5-0.6,0.9-0.9,1.4
		C403.4,85,403.2,85,403.1,85z"/>
	<path class="st0" d="M384.7,83.9c-0.5,0.3-0.9,0.8-1.4,0.9c-0.8,0.1-1.2-0.5-1.2-1.3s0.6-1.3,1.3-1.1c0.5,0.1,0.9,0.7,1.4,1
		C384.7,83.5,384.7,83.7,384.7,83.9z"/>
	<path class="st0" d="M394.7,83.9c-0.5,0.3-0.9,0.8-1.4,0.9c-0.7,0.1-1.2-0.4-1.2-1.2c0-0.7,0.6-1.4,1.3-1.2c0.5,0.2,0.9,0.7,1.4,1
		C394.7,83.5,394.7,83.7,394.7,83.9z"/>
	<path class="st0" d="M379.7,83.8c-0.5,0.3-0.9,0.9-1.4,1c-0.7,0.2-1.2-0.3-1.3-1.1c-0.1-0.7,0.5-1.5,1.2-1.3c0.5,0.1,1,0.6,1.4,0.9
		C379.7,83.4,379.7,83.6,379.7,83.8z"/>
	<path class="st0" d="M398.1,85c-0.3-0.5-0.9-0.9-0.9-1.4c-0.1-0.8,0.4-1.3,1.2-1.2c0.8,0,1.3,0.5,1.1,1.2c-0.1,0.5-0.6,0.9-0.9,1.4
		C398.4,85,398.2,85,398.1,85z"/>
	<path class="st0" d="M408.6,82.1c0.3,0.5,0.8,0.9,0.9,1.4c0.1,0.8-0.5,1.3-1.3,1.2c-0.8,0-1.2-0.6-1.1-1.3c0.1-0.5,0.6-0.9,1-1.4
		C408.2,82.1,408.4,82.1,408.6,82.1z"/>
	<path class="st0" d="M414.7,83.8c-0.5,0.3-0.9,0.9-1.4,1c-0.7,0.2-1.2-0.4-1.3-1.1c-0.1-0.8,0.4-1.4,1.2-1.3
		c0.5,0.1,0.9,0.6,1.4,0.9C414.7,83.4,414.7,83.6,414.7,83.8z"/>
	<path class="st0" d="M379.7,88.8c-0.5,0.3-0.9,0.8-1.4,0.9c-0.8,0.1-1.3-0.4-1.2-1.2c0-0.8,0.5-1.3,1.2-1.1
		c0.5,0.1,0.9,0.6,1.4,0.9C379.7,88.5,379.7,88.6,379.7,88.8z"/>
	<path class="st0" d="M383.5,87.2c0.3,0.5,0.9,0.9,0.9,1.4c0.1,0.8-0.4,1.3-1.2,1.2c-0.8,0-1.3-0.5-1.2-1.2c0.1-0.5,0.6-0.9,0.9-1.4
		C383.2,87.2,383.4,87.2,383.5,87.2z"/>
	<path class="st0" d="M393.6,87.2c0.3,0.5,0.8,0.9,0.9,1.4c0.1,0.7-0.4,1.2-1.2,1.2c-0.8,0-1.4-0.5-1.2-1.3c0.1-0.5,0.6-0.9,1-1.4
		C393.3,87.1,393.4,87.2,393.6,87.2z"/>
	<path class="st0" d="M398,90c-0.3-0.5-0.8-0.9-0.9-1.4c-0.1-0.7,0.4-1.2,1.2-1.2c0.8,0,1.4,0.5,1.2,1.3c-0.1,0.5-0.6,0.9-1,1.4
		C398.4,90,398.2,90,398,90z"/>
	<path class="st0" d="M409.7,88.8c-0.5,0.3-0.9,0.8-1.4,0.9c-0.7,0.1-1.2-0.4-1.2-1.1c0-0.8,0.5-1.4,1.2-1.2
		c0.5,0.1,0.9,0.6,1.4,0.9C409.7,88.5,409.7,88.6,409.7,88.8z"/>
	<path class="st0" d="M413.6,87.2c0.3,0.5,0.8,0.9,0.9,1.4c0.1,0.7-0.4,1.2-1.2,1.2c-0.8,0-1.4-0.5-1.2-1.2c0.1-0.5,0.6-0.9,0.9-1.4
		C413.2,87.1,413.4,87.2,413.6,87.2z"/>
	<path class="st0" d="M388.1,90c-0.4-0.4-0.9-0.9-1-1.4c-0.2-0.7,0.3-1.2,1.1-1.3c0.8-0.1,1.4,0.4,1.3,1.2c-0.1,0.5-0.6,1-0.9,1.4
		C388.4,90,388.3,90,388.1,90z"/>
	<path class="st0" d="M403.1,90c-0.4-0.4-0.9-0.9-1-1.4c-0.2-0.7,0.3-1.2,1.1-1.3c0.8-0.1,1.4,0.4,1.3,1.2c-0.1,0.5-0.6,1-0.9,1.4
		C403.4,90,403.3,90,403.1,90z"/>
	<path class="st0" d="M422.1,107.3c0.7,0,1.5,0,2.2,0c0.8,0,1.4,0.4,1.4,1.3c0,0.9-0.6,1.2-1.4,1.3c-1.6,0-3.1,0-4.7,0
		c-0.8,0-1.4-0.4-1.3-1.3c0-0.8,0.6-1.2,1.4-1.2C420.5,107.3,421.3,107.3,422.1,107.3z"/>
	<path class="st0" d="M422.1,101.1c0.8,0,1.6,0,2.3,0c0.8,0,1.3,0.4,1.3,1.2s-0.5,1.3-1.3,1.3c-1.6,0-3.3,0-4.9,0
		c-0.8,0-1.3-0.5-1.3-1.3s0.5-1.2,1.3-1.2C420.5,101.1,421.3,101.1,422.1,101.1z"/>
	<path class="st0" d="M388.3,142.3c0-0.5-0.1-1,0-1.4c0.2-0.4,0.7-1,1.1-1c0.5,0,1.2,0.5,1.3,0.9c0.2,1,0.2,2,0,3
		c-0.1,0.4-0.8,1-1.2,0.9s-0.9-0.6-1.2-1.1C388.2,143.3,388.3,142.8,388.3,142.3L388.3,142.3z"/>
	<path class="st0" d="M385.8,142.3c0,0.4,0,0.9,0,1.3c0,0.8-0.5,1.3-1.3,1.3c-0.7,0-1.2-0.5-1.2-1.2c0-0.8,0-1.6,0-2.4
		s0.5-1.3,1.3-1.3c0.8,0,1.1,0.5,1.2,1.2C385.8,141.5,385.8,141.9,385.8,142.3z"/>
</g>
<g>
	<path class="st0" d="M448.4,102.3c0-0.5,0-0.9,0-1.4c0-6.4,0-12.9,0-19.3c0-3,1.4-4.4,4.4-4.4c19.5,0,39.1,0,58.6,0
		c3.1,0,4.5,1.4,4.5,4.5c0,4.3,0,8.6,0,13c0,0.4,0,0.8,0,1.1c0.2,0.1,0.2,0.1,0.3,0.1c3,0.2,3.5,0.7,3.5,3.7c0,3.9,0,7.9,0,11.8
		c0,2.4-0.8,3.2-3.2,3.3c-0.1,0-0.3,0-0.6,0.1c0,0.5,0,0.9,0,1.4c0,8.9,0,17.7,0,26.6c0,3.1-1.4,4.5-4.5,4.5c-3.9,0-7.7,0-11.7,0
		c0,0.5,0,0.9,0,1.3c-0.1,2.2-1.6,3.7-3.8,3.7c-2.4,0-4.7,0-7.1,0c-2.6,0-4-1.4-4.1-4c0-0.3,0-0.6-0.1-0.9c-0.8,0-1.6,0-2.3,0
		c-0.5,3.5-0.7,3.7-4.3,3.7c-3.4,0-6.7,0-10.1,0c-2.4,0-3.2-0.7-3.3-3.2c0-0.1,0-0.3-0.1-0.5c-0.4,0-0.8,0-1.2,0
		c-3.6,0-7.2,0-10.8,0c-2.7,0-4.2-1.5-4.2-4.2c0-6.5,0-12.9,0-19.4c0-0.4,0-0.9,0-1.4c-0.5,0-0.9,0-1.3,0c-1.4-0.1-2.4-1-2.4-2.4
		c0-5.1,0-10.1,0-15.2c0-1.4,1-2.3,2.4-2.4C447.5,102.3,447.9,102.3,448.4,102.3z M461,121.1c0.8,0,1.5,0,2.2,0
		c0.8,0,1.4,0.3,1.5,1.2c0,0.9-0.6,1.3-1.5,1.3c-0.7,0-1.5,0-2.2,0c0,0.9,0,1.7,0,2.5c0.7,0,1.3,0,2,0c0.9,0,1.6,0.2,1.7,1.2
		c0.1,0.8-0.5,1.3-1.7,1.3c-2.5,0-4.9,0-7.4,0c-1.9,0-2.1-0.2-2.1-2.1c0-1.4,0-2.8,0-4.1c-0.9,0-1.7,0-2.5,0c0,0.2-0.1,0.4-0.1,0.6
		c0,6.8,0,13.6,0,20.4c0,1.1,0.5,1.5,1.6,1.5c3.8,0,7.6,0,11.4,0c0.2,0,0.5-0.1,0.8-0.1c0-2.8,0-5.5,0-8.3c0-1.9,1-2.8,2.8-2.9
		c4,0,7.9,0,11.9,0c1.8,0,2.8,1,2.8,2.8c0,2.4,0,4.9,0,7.3c0,0.4,0,0.8,0,1.1c0.9,0,1.7,0,2.5,0c0-0.4,0-0.8,0-1.2
		c0-5.3,0-10.6,0-15.9c0-2,0.9-2.9,2.9-2.9c3,0,6,0,9,0c2.2,0,3.1,0.9,3.1,3.1c0,5.2,0,10.4,0,15.6c0,0.4,0,0.8,0.1,1.2
		c0.4,0,0.7,0,1,0c3.6,0,7.1,0,10.7,0c1.6,0,2-0.3,2-1.9c0-9,0-18,0-27c0-0.3,0-0.7,0-1.1c-3.7,0-7.2,0-10.8,0c-2,0-3-0.9-3-2.9
		c0-4.3,0-8.6,0-12.9c0-2.1,0.9-3,3-3c3.2,0,6.4,0,9.5,0c0.4,0,0.7,0,1.2-0.1c0-0.5,0-0.8,0-1.2c0-4.3,0-8.6,0-13c0-1.7-0.3-2-2-2
		c-19.5,0-39.1,0-58.6,0c-1.6,0-1.9,0.3-1.9,1.9c0,6.5,0,12.9,0,19.4c0,0.4,0,0.7,0.1,1.1c0.9,0,1.6,0,2.5,0c0-1.6,0-3.1,0-4.6
		c0-1.1,0.4-1.5,1.4-1.6c2.8,0,5.6,0,8.4,0c0.8,0,1.4,0.4,1.4,1.3c0,0.9-0.6,1.2-1.4,1.2c-0.7,0-1.5,0-2.2,0c0,0.9,0,1.7,0,2.5
		c0.8,0,1.4,0,2.1,0c0.9,0,1.5,0.3,1.5,1.3s-0.7,1.2-1.5,1.2c-0.7,0-1.4,0-2.1,0c0,0.9,0,1.7,0,2.5c0.8,0,1.4,0,2.1,0
		c0.9,0,1.5,0.3,1.5,1.3c0,0.9-0.6,1.2-1.4,1.2c-0.7,0-1.5,0-2.2,0c0,0.9,0,1.6,0,2.5c0.8,0,1.5,0,2.3,0s1.4,0.4,1.4,1.3
		c0,0.8-0.6,1.2-1.4,1.2c-0.7,0-1.5,0-2.3,0c0,0.9,0,1.6,0,2.5c0.8,0,1.5,0,2.2,0c0.8,0,1.4,0.3,1.5,1.2c0,1-0.6,1.3-1.5,1.3
		c-0.7,0-1.5,0-2.2,0C461,119.5,461,120.2,461,121.1z M517.1,112.2c0-4.6,0-9.1,0-13.6c-5,0-9.9,0-14.9,0c0,4.6,0,9.1,0,13.6
		C507.2,112.2,512.1,112.2,517.1,112.2z M479.6,148.5c0-4.2,0-8.3,0-12.4c-4.2,0-8.2,0-12.4,0c0,4.2,0,8.2,0,12.4
		C471.4,148.5,475.5,148.5,479.6,148.5z M497.1,139.8c0-4.2,0-8.3,0-12.4c-3.3,0-6.6,0-9.8,0c0,4.2,0,8.3,0,12.4c1.3,0,2.4,0,3.6,0
		c0-0.3,0.1-0.6,0.1-0.9c0-1.3,0-2.6,0-4c0-0.8,0.4-1.3,1.3-1.3c0.8,0,1.2,0.5,1.2,1.2c0,0.5,0,1.1,0,1.6c0,1.1,0,2.2,0,3.3
		C494.8,139.8,495.9,139.8,497.1,139.8z M447.3,119.7c2.1,0,4.1,0,6.1,0c0-5,0-9.9,0-14.9c-2.1,0-4.1,0-6.1,0
		C447.3,109.9,447.3,114.8,447.3,119.7z M487.2,142.4c0,2.2-0.1,4.2,0.1,6.3c0,0.4,0.7,1.1,1.2,1.1c2.5,0.1,5.1,0.1,7.6,0
		c0.4,0,1.1-0.7,1.1-1c0.1-2.1,0.1-4.2,0.1-6.3C493.9,142.4,490.6,142.4,487.2,142.4z M456,98.6c0,9.2,0,18.3,0,27.4
		c0.8,0,1.6,0,2.3,0c0-9.2,0-18.3,0-27.4C457.6,98.6,456.8,98.6,456,98.6z"/>
	<path class="st0" d="M482.2,122.3c-2.4,0-4.8,0-7.2,0c-1.8,0-2.8-1-2.8-2.8c0-2.7,0.1-5.4,0.1-8.1c0-2-0.1-4.1-0.1-6.1
		s0.9-2.9,3-2.9c4.7,0,9.4,0,14.1,0c2,0,2.9,0.9,2.9,2.9c0,2.7-0.1,5.5-0.1,8.2c0,2,0.1,4.1,0.1,6.1c0.1,1.7-1,2.8-2.6,2.8
		C487.1,122.3,484.6,122.3,482.2,122.3z M489.7,119.8c0-5,0-10,0-14.9c-5.1,0-10,0-15,0c0,5,0,9.9,0,14.9
		C479.8,119.8,484.7,119.8,489.7,119.8z"/>
	<path class="st0" d="M457.2,142.3c-2.1,0-3.8-1.6-3.8-3.7s1.6-3.8,3.7-3.8c2,0,3.8,1.7,3.8,3.7C461,140.6,459.3,142.3,457.2,142.3z
		 M458.6,138.9c0-0.2,0-0.3,0-0.5c-0.4-0.3-0.9-0.9-1.4-1c-0.7-0.2-1.2,0.4-1.3,1.1c-0.1,0.8,0.4,1.4,1.2,1.3
		C457.7,139.7,458.1,139.2,458.6,138.9z"/>
	<path class="st0" d="M457.1,89.8c-2.1,0-3.7-1.7-3.7-3.8s1.7-3.7,3.8-3.7c2.1,0,3.7,1.8,3.7,3.8C460.9,88.2,459.2,89.8,457.1,89.8z
		 M458.6,86.3c0-0.2,0-0.3,0-0.5c-0.5-0.3-0.9-0.8-1.4-0.9c-0.7-0.1-1.2,0.4-1.2,1.2c0,0.7,0.6,1.4,1.3,1.2
		C457.8,87.1,458.2,86.6,458.6,86.3z"/>
	<path class="st0" d="M511,138.6c0,2.1-1.7,3.7-3.8,3.7c-2.1,0-3.7-1.7-3.7-3.8c0-2.1,1.8-3.7,3.8-3.7
		C509.3,134.9,511,136.6,511,138.6z M508.6,138.8c0-0.2,0-0.3,0-0.5c-0.5-0.3-0.9-0.8-1.4-0.9c-0.7-0.1-1.2,0.4-1.2,1.2
		c0,0.8,0.5,1.4,1.2,1.2C507.7,139.7,508.2,139.1,508.6,138.8z"/>
	<path class="st0" d="M511,86.1c0,2.1-1.6,3.7-3.7,3.7s-3.8-1.7-3.8-3.7c0-2.1,1.7-3.8,3.7-3.8C509.3,82.3,510.9,84,511,86.1z
		 M508.6,86.3c0-0.2,0-0.3,0-0.5c-0.5-0.3-0.9-0.8-1.4-0.9c-0.7-0.1-1.2,0.4-1.2,1.2s0.5,1.3,1.3,1.2
		C507.8,87.2,508.2,86.6,508.6,86.3z"/>
	<path class="st1" d="M475,82.2c0.3,0.5,0.8,0.9,0.9,1.4c0.1,0.7-0.4,1.2-1.2,1.2c-0.7,0-1.4-0.6-1.2-1.3c0.2-0.5,0.6-0.9,1-1.4
		C474.6,82.1,474.8,82.1,475,82.2z"/>
	<path class="st1" d="M489.5,85c-0.3-0.5-0.9-0.9-1-1.4c-0.1-0.7,0.4-1.2,1.1-1.3s1.5,0.6,1.3,1.2c-0.1,0.5-0.6,0.9-0.9,1.4
		C489.8,85,489.6,85,489.5,85z"/>
	<path class="st1" d="M471.1,83.9c-0.5,0.3-0.9,0.8-1.4,0.9c-0.8,0.1-1.2-0.5-1.2-1.3s0.6-1.3,1.3-1.1c0.5,0.1,0.9,0.7,1.4,1
		C471.1,83.5,471.1,83.7,471.1,83.9z"/>
	<path class="st1" d="M481.1,83.9c-0.5,0.3-0.9,0.8-1.4,0.9c-0.7,0.1-1.2-0.4-1.2-1.2c0-0.7,0.6-1.4,1.3-1.2c0.5,0.2,0.9,0.7,1.4,1
		C481.1,83.5,481.1,83.7,481.1,83.9z"/>
	<path class="st1" d="M466.1,83.8c-0.5,0.3-0.9,0.9-1.4,1c-0.7,0.2-1.2-0.3-1.3-1.1c-0.1-0.7,0.5-1.5,1.2-1.3c0.5,0.1,1,0.6,1.4,0.9
		C466.1,83.4,466.1,83.6,466.1,83.8z"/>
	<path class="st1" d="M484.5,85c-0.3-0.5-0.9-0.9-0.9-1.4c-0.1-0.8,0.4-1.3,1.2-1.2c0.8,0,1.3,0.5,1.1,1.2c-0.1,0.5-0.6,0.9-0.9,1.4
		C484.8,85,484.6,85,484.5,85z"/>
	<path class="st1" d="M495,82.1c0.3,0.5,0.8,0.9,0.9,1.4c0.1,0.8-0.5,1.3-1.3,1.2c-0.8,0-1.2-0.6-1.1-1.3c0.1-0.5,0.6-0.9,1-1.4
		C494.6,82.1,494.8,82.1,495,82.1z"/>
	<path class="st1" d="M501.1,83.8c-0.5,0.3-0.9,0.9-1.4,1c-0.7,0.2-1.2-0.4-1.3-1.1c-0.1-0.8,0.4-1.4,1.2-1.3
		c0.5,0.1,0.9,0.6,1.4,0.9C501.1,83.4,501.1,83.6,501.1,83.8z"/>
	<path class="st1" d="M466.1,88.8c-0.5,0.3-0.9,0.8-1.4,0.9c-0.8,0.1-1.3-0.4-1.2-1.2c0-0.8,0.5-1.3,1.2-1.1
		c0.5,0.1,0.9,0.6,1.4,0.9C466.1,88.5,466.1,88.6,466.1,88.8z"/>
	<path class="st1" d="M469.9,87.2c0.3,0.5,0.9,0.9,0.9,1.4c0.1,0.8-0.4,1.3-1.2,1.2c-0.8,0-1.3-0.5-1.2-1.2c0.1-0.5,0.6-0.9,0.9-1.4
		C469.6,87.2,469.8,87.2,469.9,87.2z"/>
	<path class="st1" d="M480,87.2c0.3,0.5,0.8,0.9,0.9,1.4c0.1,0.7-0.4,1.2-1.2,1.2c-0.8,0-1.4-0.5-1.2-1.3c0.1-0.5,0.6-0.9,1-1.4
		C479.7,87.1,479.8,87.2,480,87.2z"/>
	<path class="st1" d="M484.4,90c-0.3-0.5-0.8-0.9-0.9-1.4c-0.1-0.7,0.4-1.2,1.2-1.2c0.8,0,1.4,0.5,1.2,1.3c-0.1,0.5-0.6,0.9-1,1.4
		C484.8,90,484.6,90,484.4,90z"/>
	<path class="st1" d="M496.1,88.8c-0.5,0.3-0.9,0.8-1.4,0.9c-0.7,0.1-1.2-0.4-1.2-1.1c0-0.8,0.5-1.4,1.2-1.2
		c0.5,0.1,0.9,0.6,1.4,0.9C496.1,88.5,496.1,88.6,496.1,88.8z"/>
	<path class="st1" d="M500,87.2c0.3,0.5,0.8,0.9,0.9,1.4c0.1,0.7-0.4,1.2-1.2,1.2c-0.8,0-1.4-0.5-1.2-1.2c0.1-0.5,0.6-0.9,0.9-1.4
		C499.6,87.1,499.8,87.2,500,87.2z"/>
	<path class="st1" d="M474.5,90c-0.4-0.4-0.9-0.9-1-1.4c-0.2-0.7,0.3-1.2,1.1-1.3c0.8-0.1,1.4,0.4,1.3,1.2c-0.1,0.5-0.6,1-0.9,1.4
		C474.8,90,474.7,90,474.5,90z"/>
	<path class="st1" d="M489.5,90c-0.4-0.4-0.9-0.9-1-1.4c-0.2-0.7,0.3-1.2,1.1-1.3c0.8-0.1,1.4,0.4,1.3,1.2c-0.1,0.5-0.6,1-0.9,1.4
		C489.8,90,489.7,90,489.5,90z"/>
	<path class="st0" d="M508.5,107.3c0.7,0,1.5,0,2.2,0c0.8,0,1.4,0.4,1.4,1.3c0,0.9-0.6,1.2-1.4,1.3c-1.6,0-3.1,0-4.7,0
		c-0.8,0-1.4-0.4-1.3-1.3c0-0.8,0.6-1.2,1.4-1.2C506.9,107.3,507.7,107.3,508.5,107.3z"/>
	<path class="st0" d="M508.5,101.1c0.8,0,1.6,0,2.3,0c0.8,0,1.3,0.4,1.3,1.2s-0.5,1.3-1.3,1.3c-1.6,0-3.3,0-4.9,0
		c-0.8,0-1.3-0.5-1.3-1.3s0.5-1.2,1.3-1.2C506.9,101.1,507.7,101.1,508.5,101.1z"/>
	<path class="st0" d="M474.7,142.3c0-0.5-0.1-1,0-1.4c0.2-0.4,0.7-1,1.1-1c0.5,0,1.2,0.5,1.3,0.9c0.2,1,0.2,2,0,3
		c-0.1,0.4-0.8,1-1.2,0.9c-0.4-0.1-0.9-0.6-1.2-1.1C474.6,143.3,474.7,142.8,474.7,142.3L474.7,142.3z"/>
	<path class="st0" d="M472.2,142.3c0,0.4,0,0.9,0,1.3c0,0.8-0.5,1.3-1.3,1.3c-0.7,0-1.2-0.5-1.2-1.2c0-0.8,0-1.6,0-2.4
		s0.5-1.3,1.3-1.3s1.1,0.5,1.2,1.2C472.2,141.5,472.2,141.9,472.2,142.3z"/>
</g>
<path class="st2" d="M460.8,50.3"/>
<line class="st2" x1="395.8" y1="72.3" x2="395.8" y2="60.3"/>
<polyline class="st2" points="309.8,72.3 309.8,59.3 481.8,59.3 481.8,72.3 "/>
<g id="VYgRnt.tif">
	<g>
		<path class="st0" d="M277.4,218.6c-0.5,0-1,0-1.5,0c0,0.9,0,1.9-0.9,2.4c-0.4,0.2-0.9,0.4-1.4,0.4c-0.7,0-1.4-0.3-1.7-0.9
			c-0.3-0.6-0.4-1.2-0.6-1.9c-0.1,0-0.3,0-0.5,0c-1.9,0-3.9,0-5.8,0c-0.4,0-0.8-0.1-0.9-0.6s0.3-0.8,0.8-0.8c1.9,0,3.8,0,5.7,0
			c0.2,0,0.5,0,0.8,0c0-2.9,0-5.8,0-8.8c-0.9,0-1.7,0-2.6,0c-1.2,0-2.5,0-3.7,0c-0.6,0-0.9-0.3-0.9-0.7c0-0.4,0.3-0.7,0.9-0.7
			c1.9,0,3.8,0,5.8,0c0.2,0,0.4,0,0.6,0c0-1,0-1.9,0.8-2.4c0.4-0.3,0.9-0.5,1.4-0.5c1.3,0,1.9,0.8,2.2,2.9c0.5,0,0.9,0,1.4,0
			c0-1.1,0-2.2,0-3.2c0-0.9,0.2-1.1,1.1-1.1c1.1,0,2.2,0,3.3,0c0-0.6,0-1.2,0-1.7c0-1,0.1-1.2,1.2-1.2c0.5,0,1.1,0,1.7,0
			c0-1,0-2,0-3c-0.2,0-0.5,0-0.7,0c-2.8,0-5.7,0-8.5,0c-0.8,0-1-0.2-1-1c0-1.2,0-2.5,0-3.7c0-1,0.4-1.3,1.3-0.9
			c1.8,0.6,3.6,1.3,5.3,1.9c0.2,0.1,0.4,0.1,0.7,0.2c0-0.9,0-1.8,0-2.7c0-0.8,0.2-1,1-1c3.2,0,6.4,0,9.6,0c0.8,0,1,0.2,1,1
			c0,0.9,0,1.7,0,2.7c0.3-0.1,0.4-0.1,0.6-0.2c1.8-0.6,3.7-1.3,5.5-1.9c0.8-0.3,1.2,0,1.2,0.9c0,1.3,0,2.6,0,3.9
			c0,0.7-0.2,0.9-0.9,0.9c-2.9,0-5.8,0-8.6,0c-0.2,0-0.4,0-0.6,0c0,1,0,2,0,3c0.7,0,1.3,0,2,0c0.7,0,0.9,0.2,0.9,0.9
			c0,0.7,0,1.3,0,2c1.1,0,2.1,0,3.1,0c1.1,0,1.3,0.1,1.3,1.2c0,1,0,2.1,0,3.2c0.5,0,1,0,1.4,0c0.1-0.5,0.1-0.9,0.2-1.3
			c0.3-1,1.1-1.6,2.2-1.6c1,0,1.8,0.7,2,1.7c0,0.1,0,0.2,0,0.3c0.1,0.9,0.1,0.9,1.1,0.9c1.8,0,3.6,0,5.4,0c0.5,0,0.9,0.3,0.9,0.7
			c0,0.4-0.3,0.7-0.9,0.7c-1.9,0-3.7,0-5.6,0c-0.3,0-0.5,0-0.8,0c0,3,0,5.9,0,8.8c0.2,0,0.4,0,0.6,0c1.9,0,3.7,0,5.6,0
			c0.1,0,0.3,0,0.4,0c0.5,0,0.7,0.2,0.8,0.7c0,0.4-0.3,0.7-0.8,0.7c-1.8,0-3.5,0-5.3,0c-0.4,0-0.8,0-1.2,0c0,0.9,0,1.9-0.8,2.4
			c-0.4,0.3-0.9,0.4-1.4,0.5c-0.7,0.1-1.4-0.3-1.8-0.9c-0.3-0.6-0.4-1.3-0.6-2c-0.3,0-0.8,0-1.3,0c0,0.6,0,1.3,0,1.9
			c0,0.5,0,1,0,1.5c0,0.8-0.2,1-1,1c-3.8,0-7.5,0-11.3,0c-2.3,0-4.7,0-7,0c-1.1,0-1.2-0.1-1.2-1.3
			C277.4,220.7,277.4,219.7,277.4,218.6z M278.8,204c0,0.1,0,0.2,0,0.2c0,5.6,0,11.2,0,16.8c0,0.5,0.2,0.6,0.6,0.6
			c5.5,0,10.9,0,16.4,0c0.2,0,0.4,0,0.6,0c0-5.9,0-11.7,0-17.6C290.5,204,284.7,204,278.8,204z M292.1,190.8c-3,0-5.9,0-8.9,0
			c0,0.8,0,1.6,0,2.3c0,0.4,0.1,0.5,0.5,0.6c1.2,0.4,2.5,0.9,3.7,1.3c0.2,0.1,0.4,0.1,0.5,0c1.3-0.4,2.6-0.9,3.9-1.4
			c0.1-0.1,0.3-0.3,0.3-0.4C292.1,192.4,292.1,191.6,292.1,190.8z M300.8,212.7c0,0.8,0,1.7,0,2.5c0,1.3,0,2.6,0,4
			c0,0.7,0.6,1.1,1.1,0.8c0.2-0.2,0.4-0.6,0.4-0.8c0-2.8,0-5.7,0-8.5c0-1.4,0-2.9,0-4.3c0-0.3-0.2-0.6-0.4-0.8
			c-0.2-0.1-0.6-0.1-0.7,0.1c-0.2,0.2-0.3,0.5-0.3,0.8C300.8,208.5,300.8,210.6,300.8,212.7z M272.9,212.7L272.9,212.7
			c0,1.5,0,3,0,4.5c0,0.7,0,1.4,0,2.1c0,0.4,0.3,0.7,0.7,0.7c0.5,0,0.7-0.2,0.8-0.7c0-0.1,0-0.3,0-0.4c0-2.5,0-5.1,0-7.6
			c0-1.7,0-3.4,0-5c0-0.6-0.3-0.9-0.8-0.9s-0.7,0.4-0.7,1C272.9,208.5,272.9,210.6,272.9,212.7z M292,201c-3,0-5.8,0-8.8,0
			c0,0.5,0,1,0,1.4c2.9,0,5.8,0,8.8,0C292,202,292,201.5,292,201z M277.3,217.2c0-2.9,0-5.8,0-8.8c-0.5,0-1,0-1.4,0
			c0,2.9,0,5.8,0,8.8C276.4,217.2,276.8,217.2,277.3,217.2z M299.3,208.4c-0.5,0-1,0-1.4,0c0,2.9,0,5.8,0,8.8c0.5,0,1,0,1.4,0
			C299.3,214.2,299.3,211.3,299.3,208.4z M292.1,195C292.1,195.1,292.1,195.1,292.1,195c2.4,0.1,4.8,0.1,7.2,0.1c0-0.9,0-1.7,0-2.6
			C296.9,193.4,294.5,194.2,292.1,195z M283,195.1V195c-2.4-0.8-4.7-1.7-7.2-2.5c0,0.9,0,1.8,0,2.6
			C278.3,195.1,280.7,195.1,283,195.1z M289.1,196.6c-1,0-2,0-2.9,0c0,1,0,1.9,0,2.9c0.9,0,1.8,0,2.6,0c0.1,0,0.3-0.2,0.3-0.3
			C289.1,198.4,289.1,197.5,289.1,196.6z"/>
		<path class="st0" d="M290.4,211.9c-0.3-0.2-0.6-0.5-0.9-0.7c-0.4-0.3-0.5-0.7-0.2-1c0.3-0.4,0.7-0.4,1.1-0.1
			c0.9,0.7,1.9,1.4,2.8,2.1c0.5,0.3,0.5,0.9,0,1.2c-0.9,0.7-1.9,1.4-2.8,2.1c-0.4,0.3-0.8,0.2-1.1-0.1c-0.3-0.4-0.1-0.8,0.2-1.1
			c0.3-0.2,0.6-0.5,0.9-0.7c0,0,0,0,0-0.1c-0.2,0-0.4,0-0.6,0c-2.3,0-4.5,0-6.8,0c-0.2,0-0.4,0-0.5,0c-0.4,0-0.6-0.3-0.6-0.6
			c0-0.4,0.2-0.6,0.5-0.7c0.2,0,0.4,0,0.5,0c2.3,0,4.6,0,6.9,0c0.2,0,0.4,0,0.6,0C290.4,212,290.4,211.9,290.4,211.9z"/>
	</g>
</g>
<g id="_x37_GEpy7.tif">
	<g>
		<path class="st0" d="M349.8,210c-0.5,0-1,0-1.4,0c0-3,0-6,0-9c0.5,0,0.9,0,1.4,0c0-0.1,0-0.2,0-0.3c0-2.5,0-5,0-7.5
			c0-0.9-0.8-1.8-1.8-1.8c-0.4,0-0.7,0-1.1,0c0-0.5,0-1,0-1.6c1.3-0.1,2.5,0,3.5,1c0.6,0.7,1,1.5,1,2.5c0,2.5,0,5.1,0,7.6
			c0,0.2,0.1,0.3,0.3,0.5c1.4,0.7,2.3,1.8,2.6,3.4c0.2,1.1-0.1,2.2-0.6,3.1c-0.5,0.8-1.2,1.4-2,1.7c-0.2,0.1-0.3,0.2-0.3,0.4
			c0,2.5,0,5.1,0,7.6c0,1-0.4,1.9-1.1,2.6c-0.5,0.5-1.1,0.8-1.9,0.8c-0.5,0-1,0.1-1.5,0.1c0-0.6,0-1.1,0-1.6c0.4,0,0.7,0,1,0
			c1.1,0.1,1.9-0.9,1.8-1.9c0-2.5,0-4.9,0-7.4C349.8,210.3,349.8,210.2,349.8,210z"/>
		<path class="st0" d="M384.2,203.1c0,1.3,0.1,2.6,0,3.9c-0.1,1.2-0.2,2.4-0.4,3.5c-0.3,1.4-0.6,2.7-1,4.1c-0.4,1.5-1.1,2.9-1.8,4.2
			c-0.7,1.2-1.4,2.3-2.2,3.4c-0.4,0.5-0.9,0.6-1.3,0.2c-0.3-0.3-0.3-0.7,0-1c0.5-0.8,1-1.5,1.5-2.3c0.8-1.3,1.5-2.7,2-4.1
			c0.6-1.5,1-3,1.3-4.5c0.2-0.8,0.2-1.6,0.3-2.4c0.1-1.1,0.2-2.2,0.1-3.4c-0.1-1.3-0.2-2.6-0.4-3.9c-0.2-1.4-0.6-2.8-1.1-4.2
			c-0.9-2.5-2.1-4.8-3.6-6.9c-0.1-0.2-0.2-0.5-0.3-0.7c-0.1-0.3,0.1-0.6,0.4-0.7c0.3-0.1,0.7-0.2,0.9,0.2c0.5,0.7,1,1.4,1.5,2.1
			c0.6,0.9,1.1,1.9,1.6,2.9c0.9,1.8,1.5,3.8,1.9,5.8c0.2,0.9,0.3,1.8,0.5,2.7C384.1,202.4,384.1,202.7,384.2,203.1
			C384.1,203.1,384.1,203.1,384.2,203.1z"/>
		<path class="st0" d="M379,205.5c-0.1,2.9-0.6,5.8-1.7,8.5c-0.8,2-1.9,3.8-3.2,5.5c-0.4,0.5-1.1,0.6-1.4,0.1
			c-0.2-0.4-0.1-0.7,0.1-1c1-1.3,1.8-2.7,2.5-4.2c0.7-1.6,1.2-3.2,1.6-4.9c0.3-1.7,0.4-3.5,0.3-5.2c-0.1-1.5-0.3-3-0.8-4.5
			c-0.4-1.5-1-3-1.8-4.4c-0.6-1-1.2-1.9-1.9-2.8c-0.3-0.5-0.4-0.8-0.1-1.2c0.3-0.3,0.8-0.4,1.1-0.1c0.3,0.3,0.5,0.6,0.7,0.9
			c0.7,1.2,1.5,2.3,2.1,3.5c0.9,1.7,1.5,3.6,1.8,5.5c0.2,1,0.3,2.1,0.4,3.1C379,204.7,379,205.1,379,205.5z"/>
		<path class="st0" d="M373.8,204.2c0,0.3,0,0.9,0,1.4c0,2.3-0.5,4.6-1.4,6.7c-0.7,1.6-1.5,3-2.6,4.3c-0.2,0.3-0.5,0.6-0.9,0.5
			c-0.6-0.2-0.7-0.8-0.5-1.2c0.5-0.7,1-1.3,1.4-2c0.9-1.5,1.6-3.1,2-4.8c0.2-1,0.3-2,0.4-3c0.1-2.1-0.2-4.1-1-6
			c-0.6-1.5-1.4-3-2.4-4.3c-0.3-0.3-0.6-0.6-0.5-1.1c0-0.4,0.2-0.6,0.5-0.7c0.3-0.1,0.6-0.1,0.8,0.2c0.6,0.7,1.1,1.4,1.6,2.2
			c1.1,1.7,1.8,3.6,2.3,5.6C373.5,202.6,373.6,203.3,373.8,204.2z"/>
		<path class="st0" d="M368.6,205.5c0,2.1-0.6,4.1-1.6,5.9c-0.5,0.9-1.2,1.8-1.9,2.5c-0.4,0.4-0.7,0.3-1,0.2
			c-0.3-0.2-0.5-0.4-0.4-0.8c0.1-0.2,0.2-0.5,0.4-0.7c1.1-1.1,2-2.5,2.4-4c0.2-0.7,0.3-1.5,0.4-2.3c0.2-1.4,0-2.7-0.4-4
			c-0.5-1.5-1.3-2.9-2.5-4c-0.4-0.4-0.4-0.8-0.1-1.2c0.2-0.3,0.7-0.4,1-0.2c0.5,0.5,1,1,1.4,1.5c1.1,1.4,1.8,3.1,2.1,4.8
			C368.5,204,368.5,204.8,368.6,205.5z"/>
		<path class="st0" d="M359.7,199.8c0.3,0.2,0.7,0.3,1,0.5c1.2,0.9,2.1,2,2.4,3.5c0.5,2,0.2,3.8-1.1,5.5c-0.5,0.7-1.2,1.3-2,1.7
			c-0.4,0.2-0.8,0.1-1-0.3c-0.3-0.4,0-0.9,0.3-1.1c0.4-0.3,0.9-0.6,1.2-0.9c1.4-1.5,1.7-3.4,0.9-5.1c-0.4-1-1.2-1.7-2.1-2.2
			c-0.5-0.3-0.5-1,0-1.4C359.3,199.9,359.5,199.9,359.7,199.8z"/>
	</g>
</g>
<g id="_x38_ZjRab.tif">
	<g>
		<path class="st0" d="M438.6,202c0-3.6-0.1-7,0-10.5c0.1-2.4,2.3-4.2,4.8-4.3c2.4,0,4.6,1.7,4.9,4.1c0.1,0.8,0.1,1.6,0.1,2.5
			c0,2.7,0,5.4,0,8.2C445.1,202,441.9,202,438.6,202z M443.6,188.5c-0.1,0.1-0.1,0.2-0.2,0.2c-1.3,0-2.8,1.3-3,2.6
			c-0.1,0.8,0.3,1.3,1,1.5c0.7,0.2,1.3,0,1.5-0.6c0.3-1.1,0.9-1.3,1.9-1c0.3,0.1,0.8-0.1,0.9-0.3c0.1-0.3,0.1-0.8-0.1-1
			C445,189.3,444.3,188.9,443.6,188.5z"/>
		<path class="st0" d="M440.9,205c-1.4,0-2.6,0-3.9,0c0-0.8,0-1.5,0-2.2c4.3,0,8.6,0,13,0c0,0.7,0,1.4,0,2.2c-1.2,0-2.4,0-3.8,0
			c0,5.2,0,10.3,0,15.4c-0.6,0-1.1,0-1.6,0c0-5.1,0-10.2,0-15.3c-0.7,0-1.4,0-2.1,0c0,7.5,0,15.1,0,22.7c-0.6,0-1,0-1.6,0
			C440.9,220.2,440.9,212.7,440.9,205z"/>
		<path class="st0" d="M434.8,192.1c0,0.5,0,1,0,1.5c-2.9,0-5.8,0-8.8,0c0-0.5,0-1,0-1.5C428.9,192.1,431.8,192.1,434.8,192.1z"/>
		<path class="st0" d="M452.2,193.6c0-0.5,0-1,0-1.5c2.9,0,5.8,0,8.8,0c0,0.5,0,1,0,1.5C458.1,193.6,455.2,193.6,452.2,193.6z"/>
		<path class="st0" d="M444.3,175.3c0,2.9,0,5.8,0,8.7c-0.5,0-1,0-1.5,0c0-2.9,0-5.8,0-8.7C443.2,175.3,443.7,175.3,444.3,175.3z"/>
		<path class="st0" d="M430.7,180.8c0.2-0.2,0.6-0.5,0.8-0.7c2,2,4.1,4.1,6.2,6.1c-0.2,0.2-0.6,0.5-0.9,0.7
			C434.9,185,432.8,182.9,430.7,180.8z"/>
		<path class="st0" d="M455.6,180c0.2,0.2,0.5,0.6,0.7,0.8c-2.1,2.1-4.1,4.1-6.2,6.2c-0.2-0.2-0.5-0.6-0.7-0.9
			C451.3,184.2,453.4,182.1,455.6,180z"/>
	</g>
</g>
<path d="M306.8,148.3"/>
<polyline class="st2" points="358.8,184.3 358.8,177.3 315.8,177.3 309.8,171.3 309.8,164.3 309.8,158.3 "/>
<polyline class="st2" points="317.8,158.3 317.8,164.3 322.8,169.3 443.8,169.3 443.8,173.3 "/>
<polyline class="st2" points="301.8,158.3 301.8,171.3 296.3,176.8 287.8,176.8 287.8,183.3 "/>
<text transform="matrix(1 0 0 1 657.5831 255.7986)" style="font-family:'MyriadPro-Regular'; font-size:12px;">Task</text>
<g>
	<path class="st0" d="M89.7,13v21.5h-4.9V13h-6.4V9.1h17.8V13H89.7z"/>
	<path class="st0" d="M108.7,34.9c-6.1,0-8.4-3.8-8.4-10c0-6.6,2.9-10.5,8.7-10.5c6.6,0,8.3,3.8,8.3,10.3
		C117.3,31.5,114.4,34.9,108.7,34.9z M108.9,18.2c-3.3,0-3.7,3.1-3.7,6.5c0,3.7,0.6,6.3,3.8,6.3c3.2,0,3.5-2.8,3.5-6.4
		C112.4,21.4,112.2,18.2,108.9,18.2z"/>
	<path class="st0" d="M129.7,34.8c-1.2,0-1.7,0-2.5-0.1v7.8h-4.8V14.9h4.8v1.7c0.9-0.8,2.7-2.1,4.8-2.1c4.6,0,6.9,2.7,6.9,9.4
		C138.9,32.1,135.1,34.8,129.7,34.8z M130.4,18.6c-1.3,0-2.6,0.6-3.2,1v11.3c0.6,0.1,1.2,0.2,2.7,0.2c3.5,0,4.2-2.8,4.2-6.8
		C134,20.6,133.4,18.6,130.4,18.6z"/>
	<path class="st0" d="M151.9,34.9c-6.1,0-8.4-3.8-8.4-10c0-6.6,2.9-10.5,8.7-10.5c6.6,0,8.3,3.8,8.3,10.3
		C160.5,31.5,157.6,34.9,151.9,34.9z M152.1,18.2c-3.3,0-3.7,3.1-3.7,6.5c0,3.7,0.6,6.3,3.8,6.3c3.2,0,3.5-2.8,3.5-6.4
		C155.6,21.4,155.4,18.2,152.1,18.2z"/>
	<path class="st0" d="M164.9,34.5v-3.9h6.3V11h-5.9V7.4h10.7v23.3h6.3v3.9H164.9z"/>
	<path class="st0" d="M195.1,34.9c-6.1,0-8.4-3.8-8.4-10c0-6.6,2.9-10.5,8.7-10.5c6.6,0,8.3,3.8,8.3,10.3
		C203.7,31.5,200.8,34.9,195.1,34.9z M195.3,18.2c-3.3,0-3.7,3.1-3.7,6.5c0,3.7,0.6,6.3,3.8,6.3c3.2,0,3.5-2.8,3.5-6.4
		C198.8,21.4,198.6,18.2,195.3,18.2z"/>
	<path class="st0" d="M216.4,42.6c-3,0-5.3-0.5-7-0.9l0.8-3.9c1.8,0.4,4,0.7,5.5,0.7c3.1,0,4.4-0.4,4.4-3.9v-1.2
		c-0.7,0.9-2.3,1.4-3.7,1.4c-4,0-8.1-1.2-8.1-10c0-6.9,3.9-10.4,9.5-10.4c2.3,0,4,0.3,7.1,0.8v19.9
		C224.9,40.5,220.9,42.6,216.4,42.6z M220.1,18.7c-0.5-0.1-1.2-0.3-2.3-0.3c-3.9,0-4.8,2.6-4.8,6.4c0,4.7,1.2,6.3,4.3,6.3
		c1.2,0,2.1-0.5,2.7-0.9V18.7z"/>
	<path class="st0" d="M238.6,42.4h-4.5l2.6-7.9h-1.7l-5.7-19.7h4.9l4,15.8h0.2l4.6-15.8h4.8L238.6,42.4z"/>
</g>
<g>
	<path class="st3" d="M5.6,61.5c-1,0-1.7,0-2.2-0.1v3.9h-1V51.5h1v0.8c0.7-0.5,1.7-1,2.8-1c2.5,0,3.9,1.7,3.9,4.8
		C10.1,60.3,8,61.5,5.6,61.5z M9.1,56.6c0-2.1-0.5-4.4-3-4.4c-1.1,0-2.4,0.8-2.7,1v7.1c0.5,0.1,0.9,0.2,2.3,0.2
		C8,60.6,9.1,58.9,9.1,56.6L9.1,56.6z"/>
	<path class="st3" d="M21,61.4c-0.7,0.1-1.7-0.3-1.8-1.3c-0.4,0.3-1.5,1.3-3.6,1.3c-1.6,0-2.6-1-2.6-2.7c0-2.4,2.1-2.9,3.7-3
		l2.5-0.1v-1.5c0-1.7-0.8-2.1-2.7-2.1c-0.9,0-2,0.4-2.3,0.4L14,51.8c0.3-0.1,1.5-0.5,2.9-0.5c2,0,3.3,0.7,3.3,2.5v5.8
		c0,0.8,0.5,1,0.9,1.1L21,61.4z M19.2,56.5l-2.6,0.1c-1.7,0.1-2.6,0.9-2.6,2c0,1.5,0.7,2,2,2c1.4,0,3.1-1.2,3.2-1.3V56.5z"/>
	<path class="st3" d="M28.9,61.5c-1.8,0-3.2-0.3-3.2-2.6v-6.4h-2.3v-0.9h2.3v-2h1v2h5.6v0.9h-5.6v6.2c0,1.5,0.5,2,2.2,2
		c1.2,0,2.2-0.3,3.3-0.7l0.3,0.8C31.5,61.1,30.2,61.5,28.9,61.5z"/>
	<path class="st3" d="M39.7,61.5c-1.8,0-3.2-0.3-3.2-2.6v-6.4h-2.3v-0.9h2.3v-2h1v2h5.6v0.9h-5.6v6.2c0,1.5,0.5,2,2.2,2
		c1.2,0,2.2-0.3,3.3-0.7l0.3,0.8C42.3,61.1,41,61.5,39.7,61.5z"/>
	<path class="st3" d="M46.5,56.5c0.1,3.6,1.9,4.1,4.1,4.1c0.7,0,2-0.2,2.3-0.3l0.2,0.8c-0.3,0.1-1.2,0.4-3,0.4
		c-2.8,0-4.7-1.2-4.7-4.9c0-4,2.1-5.3,4.4-5.3c2.3,0,3.5,1.5,3.5,4.9v0.4H46.5z M49.7,52c-1.6,0-3,1.2-3.2,3.6h5.8
		C52.4,53.5,51.4,52,49.7,52z"/>
	<path class="st3" d="M64.8,52.9c-0.6-0.3-1.4-0.8-2.4-0.8c-1.3,0-2.2,0.9-2.8,1.6v6.6h3.6v0.9H56v-0.9h2.7v-8H56v-0.9h3.7v1.2
		c0.5-0.6,1.3-1.4,2.8-1.4c1.6,0,2.3,0.6,2.8,0.8L64.8,52.9z"/>
	<path class="st3" d="M73.9,61.3v-6.1c0-1.8-0.2-3-2.2-3c-1.3,0-2.9,1.1-3.3,1.4v7.8h-1v-9.8h1v1.2c0.7-0.5,1.8-1.4,3.5-1.4
		c2.8,0,3,2.1,3,3.7v6.4H73.9z"/>
	<path class="st3" d="M81.4,61.5c-1.6,0-2.5-0.2-3.3-0.6l0.3-0.9c0.7,0.3,1.6,0.6,2.9,0.6c1.5,0,3.2-0.3,3.2-1.7c0-2.4-6-1.7-6-5.1
		c0-1.8,1.5-2.5,3.3-2.5c1.2,0,2.1,0.2,2.9,0.5l-0.3,0.8c-0.7-0.3-1.6-0.5-2.7-0.5c-1.3,0-2.3,0.5-2.3,1.6c0,2.6,6,1.9,6,5.1
		C85.5,61,83,61.5,81.4,61.5z"/>
	<path class="st3" d="M103.5,61.5c-2.6,0-4.2-1.7-4.2-5c0-3.4,1.9-5.2,4.3-5.2c2.8,0,4.2,1.8,4.2,5.1
		C107.7,59.9,105.9,61.5,103.5,61.5z M106.7,56.4c0-1.9-0.6-4.3-3.2-4.3c-2.6,0-3.3,2.4-3.3,4.3c0,2.1,0.8,4.2,3.3,4.2
		C106.1,60.6,106.7,58.4,106.7,56.4L106.7,56.4z"/>
	<path class="st3" d="M118.7,48.5c-0.3-0.1-1.3-0.2-2-0.2c-1.7,0-2.6,0.5-2.6,2.3v1h4.3v0.9h-4.3v8h4.3v0.9h-8.1v-0.9h2.9v-8h-2.9
		v-0.9h2.9v-1c0-2.6,1.8-3.2,3.6-3.2c0.7,0,1.9,0.2,2.2,0.3L118.7,48.5z"/>
	<path class="st3" d="M136.9,61.5c-3.3,0-4.8-1.5-4.8-5.1c0-3.2,1.7-5.2,4.4-5.2c1.5,0,2.4,0.4,3.3,0.9l-0.4,0.8
		c-0.8-0.4-1.7-0.7-2.9-0.7c-2,0-3.3,1.6-3.3,4.2c0,2.9,1,4.2,3.9,4.2c1.2,0,2.1-0.3,2.6-0.4l0.2,0.9
		C139.4,61.2,138.5,61.5,136.9,61.5z"/>
	<path class="st3" d="M146.7,61.5c-2.6,0-4.2-1.7-4.2-5c0-3.4,1.9-5.2,4.3-5.2c2.8,0,4.2,1.8,4.2,5.1
		C150.9,59.9,149.1,61.5,146.7,61.5z M149.9,56.4c0-1.9-0.6-4.3-3.2-4.3c-2.6,0-3.3,2.4-3.3,4.3c0,2.1,0.8,4.2,3.3,4.2
		C149.3,60.6,149.9,58.4,149.9,56.4L149.9,56.4z"/>
	<path class="st3" d="M160.3,61.3v-6.1c0-1.8-0.2-3-2.2-3c-1.3,0-2.9,1.1-3.3,1.4v7.8h-1v-9.8h1v1.2c0.7-0.5,1.8-1.4,3.5-1.4
		c2.8,0,3,2.1,3,3.7v6.4H160.3z"/>
	<path class="st3" d="M171.1,61.3v-6.1c0-1.8-0.2-3-2.2-3c-1.3,0-2.9,1.1-3.3,1.4v7.8h-1v-9.8h1v1.2c0.7-0.5,1.8-1.4,3.5-1.4
		c2.8,0,3,2.1,3,3.7v6.4H171.1z"/>
	<path class="st3" d="M176.1,56.5c0.1,3.6,1.9,4.1,4.1,4.1c0.7,0,2-0.2,2.3-0.3l0.2,0.8c-0.3,0.1-1.2,0.4-3,0.4
		c-2.8,0-4.7-1.2-4.7-4.9c0-4,2.1-5.3,4.4-5.3c2.3,0,3.5,1.5,3.5,4.9v0.4H176.1z M179.3,52c-1.6,0-3,1.2-3.2,3.6h5.8
		C182,53.5,181,52,179.3,52z"/>
	<path class="st3" d="M190.9,61.5c-3.3,0-4.8-1.5-4.8-5.1c0-3.2,1.7-5.2,4.4-5.2c1.5,0,2.4,0.4,3.3,0.9l-0.4,0.8
		c-0.8-0.4-1.7-0.7-2.9-0.7c-2,0-3.3,1.6-3.3,4.2c0,2.9,1,4.2,3.9,4.2c1.2,0,2.1-0.3,2.6-0.4l0.2,0.9
		C193.4,61.2,192.5,61.5,190.9,61.5z"/>
	<path class="st3" d="M201.7,61.5c-1.8,0-3.2-0.3-3.2-2.6v-6.4h-2.3v-0.9h2.3v-2h1v2h5.6v0.9h-5.6v6.2c0,1.5,0.5,2,2.2,2
		c1.2,0,2.2-0.3,3.3-0.7l0.3,0.8C204.3,61.1,203,61.5,201.7,61.5z"/>
	<path class="st3" d="M207.7,61.3v-0.9h3.7v-8h-3.4v-0.9h4.4v8.9h3.7v0.9H207.7z M212,49.4l-1-1l1-1l1,1L212,49.4z"/>
	<path class="st3" d="M222.3,61.5c-2.6,0-4.2-1.7-4.2-5c0-3.4,1.9-5.2,4.3-5.2c2.8,0,4.2,1.8,4.2,5.1
		C226.5,59.9,224.7,61.5,222.3,61.5z M225.5,56.4c0-1.9-0.6-4.3-3.2-4.3c-2.6,0-3.3,2.4-3.3,4.3c0,2.1,0.8,4.2,3.3,4.2
		C224.9,60.6,225.5,58.4,225.5,56.4L225.5,56.4z"/>
	<path class="st3" d="M235.9,61.3v-6.1c0-1.8-0.2-3-2.2-3c-1.3,0-2.9,1.1-3.3,1.4v7.8h-1v-9.8h1v1.2c0.7-0.5,1.8-1.4,3.5-1.4
		c2.8,0,3,2.1,3,3.7v6.4H235.9z"/>
	<path class="st3" d="M243.4,61.5c-1.6,0-2.5-0.2-3.3-0.6l0.3-0.9c0.7,0.3,1.6,0.6,2.9,0.6c1.5,0,3.2-0.3,3.2-1.7c0-2.4-6-1.7-6-5.1
		c0-1.8,1.5-2.5,3.3-2.5c1.2,0,2.1,0.2,2.9,0.5l-0.3,0.8c-0.7-0.3-1.6-0.5-2.7-0.5c-1.3,0-2.3,0.5-2.3,1.6c0,2.6,6,1.9,6,5.1
		C247.5,61,245,61.5,243.4,61.5z"/>
</g>
<g>
	<path class="st0" d="M156.4,121l-1.2-6.5h-6.2l-1.4,6.5h-4.9l6-25.4h7.6l5.3,25.4H156.4z M153,102.9l-0.7-4.9h-0.2l-0.8,4.9l-1.8,8
		h5L153,102.9z"/>
	<path class="st0" d="M173.2,129.1c-3,0-5.3-0.5-7-0.9l0.8-3.9c1.8,0.4,4,0.7,5.5,0.7c3.1,0,4.4-0.4,4.4-3.9V120
		c-0.7,0.9-2.3,1.4-3.7,1.4c-4,0-8.1-1.2-8.1-10c0-6.9,3.9-10.4,9.5-10.4c2.3,0,4,0.3,7.1,0.8v19.9
		C181.7,127,177.7,129.1,173.2,129.1z M176.9,105.2c-0.5-0.1-1.2-0.3-2.3-0.3c-3.9,0-4.8,2.6-4.8,6.4c0,4.7,1.2,6.3,4.3,6.3
		c1.2,0,2.1-0.5,2.7-0.9V105.2z"/>
	<path class="st0" d="M191.8,112.9c0.2,4,2.4,4.4,5.2,4.4c1.4,0,4-0.2,5.7-0.5l0.6,3.7c-1.7,0.5-4.1,0.9-6.8,0.9
		c-5.8,0-9.5-2.1-9.5-9.8c0-8,3.4-10.6,9-10.6c5.7,0,7.5,4.1,7.5,10.3v1.7H191.8z M195.5,104.6c-2.1,0-3.4,1.5-3.6,5h6.7
		C198.6,106.1,197.6,104.6,195.5,104.6z"/>
	<path class="st0" d="M220.2,121v-12c0-3-0.3-4-2.7-4c-1.9,0-3.3,1-4.1,1.5V121h-4.8v-19.7h4.8v2.1c1.1-1,2.7-2.6,5.6-2.6
		c6,0,5.9,3.7,5.9,7.7V121H220.2z"/>
	<path class="st0" d="M241.8,121.4c-3.7,0-8.2-0.1-8.2-6.1V105h-4.2v-3.6h4.2v-4h4.8v4h8.4v3.6h-8.4v10.1c0,1.9,1.2,2.3,3.3,2.3
		c1.7,0,4.5-0.4,5.2-0.6l0.5,3.7C246,121,243.6,121.4,241.8,121.4z"/>
</g>
<g>
	<path class="st3" d="M54,137.1c-0.6-0.3-1.4-0.8-2.4-0.8c-1.3,0-2.2,0.9-2.8,1.6v6.6h3.6v0.9h-7.3v-0.9h2.7v-8h-2.7v-0.9h3.7v1.2
		c0.5-0.6,1.3-1.4,2.8-1.4c1.6,0,2.3,0.6,2.8,0.8L54,137.1z"/>
	<path class="st3" d="M60.3,145.6c-2.6,0-4.2-1.7-4.2-5c0-3.4,1.9-5.2,4.3-5.2c2.8,0,4.2,1.8,4.2,5.1
		C64.5,144,62.7,145.6,60.3,145.6z M63.5,140.5c0-1.9-0.6-4.3-3.2-4.3c-2.6,0-3.3,2.4-3.3,4.3c0,2.1,0.8,4.2,3.3,4.2
		C62.9,144.8,63.5,142.6,63.5,140.5L63.5,140.5z"/>
	<path class="st3" d="M66.8,145.5v-0.9h3.8v-11.8h-3.4v-0.8h4.4v12.7h3.7v0.9H66.8z"/>
	<path class="st3" d="M78.9,140.6c0.1,3.6,1.9,4.1,4.1,4.1c0.7,0,2-0.2,2.3-0.3l0.2,0.8c-0.3,0.1-1.2,0.4-3,0.4
		c-2.8,0-4.7-1.2-4.7-4.9c0-4,2.1-5.3,4.4-5.3c2.3,0,3.5,1.5,3.5,4.9v0.4H78.9z M82.1,136.2c-1.6,0-3,1.2-3.2,3.6h5.8
		C84.8,137.6,83.8,136.2,82.1,136.2z"/>
	<path class="st3" d="M92.2,145.6c-1.6,0-2.5-0.2-3.3-0.6l0.3-0.9c0.7,0.3,1.6,0.6,2.9,0.6c1.5,0,3.2-0.3,3.2-1.7c0-2.4-6-1.7-6-5.1
		c0-1.8,1.5-2.5,3.3-2.5c1.2,0,2.1,0.2,2.9,0.5l-0.3,0.8c-0.7-0.3-1.6-0.5-2.7-0.5c-1.3,0-2.3,0.5-2.3,1.6c0,2.6,6,1.9,6,5.1
		C96.3,145.1,93.8,145.6,92.2,145.6z"/>
	<path class="st3" d="M118.7,132.6c-0.3-0.1-1.3-0.2-2-0.2c-1.7,0-2.6,0.5-2.6,2.2v1h4.3v0.9h-4.3v8h4.3v0.9h-8.1v-0.9h2.9v-8h-2.9
		v-0.9h2.9v-1c0-2.6,1.8-3.2,3.6-3.2c0.7,0,1.9,0.2,2.2,0.3L118.7,132.6z"/>
	<path class="st3" d="M125.1,145.6c-2.6,0-4.2-1.7-4.2-5c0-3.4,1.9-5.2,4.3-5.2c2.8,0,4.2,1.8,4.2,5.1
		C129.3,144,127.5,145.6,125.1,145.6z M128.3,140.5c0-1.9-0.6-4.3-3.2-4.3c-2.6,0-3.3,2.4-3.3,4.3c0,2.1,0.8,4.2,3.3,4.2
		C127.7,144.8,128.3,142.6,128.3,140.5L128.3,140.5z"/>
	<path class="st3" d="M140.4,137.1c-0.6-0.3-1.4-0.8-2.4-0.8c-1.3,0-2.2,0.9-2.8,1.6v6.6h3.6v0.9h-7.3v-0.9h2.7v-8h-2.7v-0.9h3.7
		v1.2c0.5-0.6,1.3-1.4,2.8-1.4c1.6,0,2.3,0.6,2.8,0.8L140.4,137.1z"/>
	<path class="st3" d="M158.5,145.6c-3.3,0-4.8-1.5-4.8-5.1c0-3.2,1.7-5.2,4.4-5.2c1.5,0,2.4,0.4,3.3,0.9l-0.4,0.8
		c-0.8-0.5-1.7-0.7-2.9-0.7c-2,0-3.3,1.6-3.3,4.2c0,2.9,1,4.2,3.9,4.2c1.2,0,2.1-0.3,2.6-0.4l0.2,0.9
		C161,145.3,160.1,145.6,158.5,145.6z"/>
	<path class="st3" d="M168.3,145.6c-2.6,0-4.2-1.7-4.2-5c0-3.4,1.9-5.2,4.3-5.2c2.8,0,4.2,1.8,4.2,5.1
		C172.5,144,170.7,145.6,168.3,145.6z M171.5,140.5c0-1.9-0.6-4.3-3.2-4.3c-2.6,0-3.3,2.4-3.3,4.3c0,2.1,0.8,4.2,3.3,4.2
		C170.9,144.8,171.5,142.6,171.5,140.5L171.5,140.5z"/>
	<path class="st3" d="M182.4,145.5v-6.1c0-1.6,0.1-3-1.2-3c-0.8,0-1.4,0.9-1.7,1.3c0.1,0.4,0.1,1,0.1,1.4v6.4h-1V139
		c0-1.3,0.1-2.7-1.1-2.7c-0.7,0-1.5,1.2-1.7,1.6v7.6h-1v-9.8h1v1.1c0.4-0.6,0.9-1.3,1.9-1.3c1.1,0,1.5,0.6,1.7,1.3
		c0.4-0.7,0.9-1.3,1.9-1.3c2.1,0,2.1,2,2.1,3.7v6.4H182.4z"/>
	<path class="st3" d="M189.2,145.6c-1,0-1.7,0-2.2-0.1v3.9h-1v-13.8h1v0.8c0.7-0.5,1.7-1,2.8-1c2.5,0,3.9,1.7,3.9,4.8
		C193.7,144.4,191.6,145.6,189.2,145.6z M192.7,140.7c0-2.1-0.5-4.4-3-4.4c-1.1,0-2.4,0.8-2.7,1v7.1c0.5,0.1,0.9,0.2,2.3,0.2
		C191.6,144.7,192.7,143,192.7,140.7L192.7,140.7z"/>
	<path class="st3" d="M203.4,145.5v-1.2c-0.8,0.5-1.9,1.4-3.6,1.4c-2.7,0-2.9-2.2-2.9-3.7v-6.3h1v6c0,1.6,0.1,3.1,2.1,3.1
		c1.3,0,3-1.1,3.4-1.4v-7.7h0.9v9.8H203.4z"/>
	<path class="st3" d="M212.5,145.6c-1.8,0-3.2-0.3-3.2-2.6v-6.4H207v-0.9h2.3v-2h1v2h5.6v0.9h-5.6v6.2c0,1.5,0.5,2,2.2,2
		c1.2,0,2.2-0.3,3.3-0.7l0.3,0.8C215.1,145.2,213.8,145.6,212.5,145.6z"/>
	<path class="st3" d="M219.3,140.6c0.1,3.6,1.9,4.1,4.1,4.1c0.7,0,2-0.2,2.3-0.3l0.2,0.8c-0.3,0.1-1.2,0.4-3,0.4
		c-2.8,0-4.7-1.2-4.7-4.9c0-4,2.1-5.3,4.4-5.3c2.3,0,3.5,1.5,3.5,4.9v0.4H219.3z M222.5,136.2c-1.6,0-3,1.2-3.2,3.6h5.8
		C225.2,137.6,224.2,136.2,222.5,136.2z"/>
	<path class="st3" d="M237.6,137.1c-0.6-0.3-1.4-0.8-2.4-0.8c-1.3,0-2.2,0.9-2.8,1.6v6.6h3.6v0.9h-7.3v-0.9h2.7v-8h-2.7v-0.9h3.7
		v1.2c0.5-0.6,1.3-1.4,2.8-1.4c1.6,0,2.3,0.6,2.8,0.8L237.6,137.1z"/>
	<path class="st3" d="M243.4,145.6c-1.6,0-2.5-0.2-3.3-0.6l0.3-0.9c0.7,0.3,1.6,0.6,2.9,0.6c1.5,0,3.2-0.3,3.2-1.7
		c0-2.4-6-1.7-6-5.1c0-1.8,1.5-2.5,3.3-2.5c1.2,0,2.1,0.2,2.9,0.5l-0.3,0.8c-0.7-0.3-1.6-0.5-2.7-0.5c-1.3,0-2.3,0.5-2.3,1.6
		c0,2.6,6,1.9,6,5.1C247.5,145.1,245,145.6,243.4,145.6z"/>
</g>
<g>
	<path class="st0" d="M176.1,184.6v21.5h-4.9v-21.5h-6.4v-3.9h17.8v3.9H176.1z"/>
	<path class="st0" d="M203.9,206.3c-2.3,0.1-5.2-0.2-5.7-2.2c-0.9,0.9-2.4,2.3-5.2,2.3c-4,0-6.2-1.9-6.2-5.7c0-4.9,4.5-5.8,8.1-5.8
		l2.9,0v-2.1c0-2.2-1.3-2.6-4.1-2.6c-1.9,0-3.3,0.4-4.8,0.8l-1-3.6c1.2-0.5,3.7-1.2,6.6-1.2c4.1,0,8,0.6,8,5.7v9.8
		c0,0.9,0.6,1.2,1.7,1.2L203.9,206.3z M197.8,197.6l-2.6,0.1c-3.2,0.1-3.7,1.4-3.7,2.6c0,1.6,0.8,2.3,2.3,2.3c1.7,0,3.2-0.9,4-1.2
		V197.6z"/>
	<path class="st0" d="M215.8,206.4c-2.9,0-5.1-0.3-7-0.9l0.6-3.7c2.2,0.4,4.2,0.7,5.9,0.7c3,0,4.8-0.5,4.8-1.9c0-3.2-11-1.3-11-8.8
		c0-4.1,4.2-5.8,8.3-5.8c2.4,0,4.5,0.4,6.4,1l-0.9,3.5c-1.8-0.4-3.3-0.7-5.4-0.7c-2.2,0-3.6,0.7-3.6,1.8c0,3.5,11,1.9,11,8.7
		C224.9,205.3,219.1,206.4,215.8,206.4z"/>
	<path class="st0" d="M241.9,206.1l-6.2-10.2v10.3h-4.8V179h4.8v16.1l6.6-8.6h5.2l-7,8.7l7.2,10.9H241.9z"/>
</g>
<g>
	<path class="st3" d="M57.3,226.2c0.1,3.6,1.9,4.1,4.1,4.1c0.7,0,2-0.2,2.3-0.3l0.2,0.8c-0.3,0.1-1.2,0.4-3,0.4
		c-2.8,0-4.7-1.2-4.7-4.9c0-4,2.1-5.3,4.4-5.3c2.3,0,3.5,1.5,3.5,4.9v0.4H57.3z M60.5,221.7c-1.6,0-3,1.2-3.2,3.6h5.8
		C63.2,223.2,62.2,221.7,60.5,221.7z"/>
	<path class="st3" d="M71.7,226.1L76,231h-1.3l-3.6-4.3l-3.7,4.3h-1.2l4.3-4.9l-4.3-4.9h1.3l3.6,4.3l3.7-4.3H76L71.7,226.1z"/>
	<path class="st3" d="M81.2,231.2c-1,0-1.7,0-2.2-0.1v3.9h-1v-13.8h1v0.8c0.7-0.5,1.7-1,2.8-1c2.5,0,3.9,1.7,3.9,4.8
		C85.7,230,83.6,231.2,81.2,231.2z M84.7,226.3c0-2.1-0.5-4.4-3-4.4c-1.1,0-2.4,0.8-2.7,1v7.1c0.5,0.1,0.9,0.2,2.3,0.2
		C83.6,230.3,84.7,228.6,84.7,226.3L84.7,226.3z"/>
	<path class="st3" d="M89.7,226.2c0.1,3.6,1.9,4.1,4.1,4.1c0.7,0,2-0.2,2.3-0.3l0.2,0.8c-0.3,0.1-1.2,0.4-3,0.4
		c-2.8,0-4.7-1.2-4.7-4.9c0-4,2.1-5.3,4.4-5.3c2.3,0,3.5,1.5,3.5,4.9v0.4H89.7z M92.9,221.7c-1.6,0-3,1.2-3.2,3.6h5.8
		C95.6,223.2,94.6,221.7,92.9,221.7z"/>
	<path class="st3" d="M108,222.6c-0.6-0.3-1.4-0.8-2.4-0.8c-1.3,0-2.2,0.9-2.8,1.6v6.6h3.6v0.9h-7.3v-0.9h2.7v-8h-2.7v-0.9h3.7v1.2
		c0.5-0.6,1.3-1.4,2.8-1.4c1.6,0,2.3,0.6,2.8,0.8L108,222.6z"/>
	<path class="st3" d="M110.5,231v-0.9h3.7v-8h-3.4v-0.9h4.4v8.9h3.7v0.9H110.5z M114.8,219.1l-1-1l1-1l1,1L114.8,219.1z"/>
	<path class="st3" d="M128.4,231v-6.1c0-1.6,0.1-3-1.2-3c-0.8,0-1.4,0.9-1.7,1.4c0.1,0.4,0.1,1,0.1,1.4v6.4h-1v-6.5
		c0-1.3,0.1-2.7-1.1-2.7c-0.7,0-1.5,1.2-1.7,1.6v7.6h-1v-9.8h1v1.1c0.4-0.6,0.9-1.4,1.9-1.4c1.1,0,1.5,0.6,1.7,1.3
		c0.4-0.7,0.9-1.3,1.9-1.3c2.1,0,2.1,2,2.1,3.7v6.4H128.4z"/>
	<path class="st3" d="M132.9,226.2c0.1,3.6,1.9,4.1,4.1,4.1c0.7,0,2-0.2,2.3-0.3l0.2,0.8c-0.3,0.1-1.2,0.4-3,0.4
		c-2.8,0-4.7-1.2-4.7-4.9c0-4,2.1-5.3,4.4-5.3c2.3,0,3.5,1.5,3.5,4.9v0.4H132.9z M136.1,221.7c-1.6,0-3,1.2-3.2,3.6h5.8
		C138.8,223.2,137.8,221.7,136.1,221.7z"/>
	<path class="st3" d="M149.5,231v-6.1c0-1.8-0.2-3-2.2-3c-1.3,0-2.9,1.1-3.3,1.4v7.8h-1v-9.8h1v1.2c0.7-0.5,1.8-1.4,3.5-1.4
		c2.8,0,3,2.1,3,3.7v6.4H149.5z"/>
	<path class="st3" d="M158.5,231.2c-1.8,0-3.2-0.3-3.2-2.6v-6.4H153v-0.9h2.3v-2h1v2h5.6v0.9h-5.6v6.2c0,1.5,0.5,2,2.2,2
		c1.2,0,2.2-0.3,3.3-0.7l0.3,0.8C161.1,230.8,159.8,231.2,158.5,231.2z"/>
	<path class="st3" d="M172.2,231.1c-0.7,0.1-1.7-0.3-1.8-1.3c-0.4,0.3-1.5,1.3-3.6,1.3c-1.6,0-2.6-1-2.6-2.7c0-2.4,2.1-2.9,3.7-3
		l2.5-0.1v-1.5c0-1.7-0.8-2.1-2.7-2.1c-0.9,0-2,0.4-2.3,0.4l-0.2-0.8c0.3-0.1,1.5-0.5,2.9-0.5c2,0,3.3,0.7,3.3,2.5v5.8
		c0,0.8,0.5,1,0.9,1.1L172.2,231.1z M170.4,226.2l-2.6,0.1c-1.7,0.1-2.6,0.9-2.6,2c0,1.5,0.7,2,2,2c1.4,0,3.1-1.2,3.2-1.3V226.2z"/>
	<path class="st3" d="M174.8,231v-0.9h3.8v-11.8h-3.4v-0.8h4.4v12.7h3.7v0.9H174.8z"/>
	<path class="st3" d="M196.4,231v-0.9h3.8v-11.8h-3.4v-0.8h4.4v12.7h3.7v0.9H196.4z"/>
	<path class="st3" d="M211.5,231.2c-2.6,0-4.2-1.7-4.2-5c0-3.4,1.9-5.2,4.3-5.2c2.8,0,4.2,1.8,4.2,5.1
		C215.7,229.6,213.9,231.2,211.5,231.2z M214.7,226.1c0-1.9-0.6-4.3-3.2-4.3c-2.6,0-3.3,2.4-3.3,4.3c0,2.1,0.8,4.2,3.3,4.2
		C214.1,230.3,214.7,228.1,214.7,226.1L214.7,226.1z"/>
	<path class="st3" d="M222.1,235.2c-1.4,0-2.7-0.3-3-0.3l0.2-0.9c0.2,0.1,1.7,0.3,2.5,0.3c1.7,0,3.3-0.3,3.3-2.8v-1.2
		c-0.6,0.6-1.5,0.9-2.6,0.9c-2,0-4.2-0.7-4.2-5c0-3.6,2-5.2,4.5-5.2c1.2,0,2.4,0.2,3.3,0.4v10.4C226.1,234,224.5,235.2,222.1,235.2z
		 M225.1,222.1c-0.5-0.1-1.2-0.2-2.3-0.2c-2.6,0-3.5,2-3.5,4.4c0,2.9,1.1,4.1,3.2,4.1c1.1,0,2.1-0.7,2.5-1.1L225.1,222.1z"/>
	<path class="st3" d="M229.3,231v-0.9h3.7v-8h-3.4v-0.9h4.4v8.9h3.7v0.9H229.3z M233.6,219.1l-1-1l1-1l1,1L233.6,219.1z"/>
	<path class="st3" d="M244.9,231.2c-3.3,0-4.8-1.5-4.8-5.1c0-3.2,1.7-5.2,4.4-5.2c1.5,0,2.4,0.4,3.3,0.9l-0.4,0.8
		c-0.8-0.4-1.7-0.7-2.9-0.7c-2,0-3.3,1.6-3.3,4.2c0,2.9,1,4.2,3.9,4.2c1.2,0,2.1-0.3,2.6-0.4l0.2,0.9
		C247.4,230.9,246.5,231.2,244.9,231.2z"/>
</g>
<polyline class="st4" points="264.1,29.7 326.9,29.7 345.7,48.5 "/>
</svg>
